# 3ds Max Wavefront OBJ Exporter v0.97b - (c)2007 guruware
# File Created: 20.05.2017 19:03:53

#
# object Cylinder002
#

v  145.0325 299.3157 226.0592
v  156.2999 299.0262 219.5222
v  156.3749 299.5601 219.5436
v  145.0607 299.8731 226.1081
v  134.4740 299.3795 232.3900
v  134.5038 299.9683 232.4416
v  134.3863 298.8087 232.2382
v  144.9496 298.7751 225.9155
v  156.1718 298.5085 219.4061
v  144.8135 298.2680 225.6799
v  155.9939 298.0230 219.1971
v  134.2427 298.2733 231.9894
v  134.0482 297.7890 231.6526
v  144.6294 297.8094 225.3609
v  155.7723 297.5838 218.9029
v  144.4020 297.4140 224.9671
v  155.5131 297.2051 218.5313
v  133.8081 297.3715 231.2367
v  133.5302 297.0322 230.7554
v  144.1388 297.0928 224.5113
v  155.2248 296.8974 218.0947
v  143.8475 296.8565 224.0067
v  154.9157 296.6713 217.6053
v  133.2225 296.7828 230.2225
v  132.8948 296.6295 229.6548
v  143.5371 296.7114 223.4691
v  154.5954 296.5322 217.0790
v  143.2169 296.6630 222.9145
v  154.2736 296.4859 216.5310
v  132.5567 296.5785 229.0692
v  132.2186 296.6295 228.4837
v  142.8967 296.7114 222.3599
v  153.9600 296.5322 215.9782
v  142.5864 296.8565 221.8223
v  153.6642 296.6713 215.4376
v  131.8908 296.7828 227.9159
v  131.5832 297.0322 227.3830
v  142.2951 297.0928 221.3177
v  153.3950 296.8974 214.9254
v  142.0319 297.4140 220.8620
v  153.1610 297.2051 214.4572
v  131.3053 297.3715 226.9018
v  131.0652 297.7890 226.4858
v  141.8045 297.8094 220.4681
v  152.9688 297.5838 214.0470
v  141.6203 298.2680 220.1491
v  152.8249 298.0230 213.7081
v  130.8707 298.2733 226.1490
v  130.7271 298.8087 225.9002
v  141.4843 298.7751 219.9135
v  152.7327 298.5085 213.4494
v  141.4013 299.3157 219.7698
v  152.6962 299.0262 213.2805
v  130.6395 299.3795 225.7485
v  130.6096 299.9683 225.6968
v  141.3731 299.8731 219.7209
v  152.7151 299.5601 213.2047
v  141.4013 300.4305 219.7698
v  152.7904 300.0938 213.2261
v  130.6395 300.5569 225.7485
v  130.7271 301.1277 225.9002
v  141.4843 300.9710 219.9135
v  152.9185 300.6116 213.3422
v  141.6203 301.4781 220.1491
v  153.0964 301.0971 213.5513
v  130.8707 301.6631 226.1490
v  131.0652 302.1475 226.4858
v  141.8045 301.9367 220.4681
v  153.3179 301.5363 213.8454
v  142.0319 302.3321 220.8620
v  153.5770 301.9149 214.2170
v  131.3053 302.5650 226.9018
v  131.5832 302.9042 227.3830
v  142.2951 302.6533 221.3177
v  153.8655 302.2227 214.6537
v  142.5864 302.8895 221.8223
v  154.1745 302.4488 215.1429
v  131.8908 303.1536 227.9159
v  132.2186 303.3069 228.4837
v  142.8967 303.0347 222.3599
v  154.4948 302.5879 215.6694
v  143.2169 303.0831 222.9145
v  154.8167 302.6341 216.2174
v  132.5567 303.3581 229.0692
v  132.8948 303.3069 229.6548
v  143.5371 303.0347 223.4691
v  155.1303 302.5879 216.7701
v  143.8475 302.8895 224.0066
v  155.4261 302.4488 217.3107
v  133.2225 303.1536 230.2225
v  133.5302 302.9042 230.7554
v  144.1388 302.6533 224.5113
v  155.6953 302.2227 217.8231
v  144.4020 302.3321 224.9671
v  155.9292 301.9149 218.2911
v  133.8081 302.5650 231.2367
v  134.0482 302.1475 231.6526
v  144.6294 301.9367 225.3609
v  156.1215 301.5363 218.7013
v  144.8135 301.4781 225.6799
v  156.2654 301.0971 219.0403
v  134.2427 301.6631 231.9894
v  134.3863 301.1277 232.2382
v  144.9496 300.9712 225.9155
v  156.3575 300.6116 219.2988
v  145.0325 300.4305 226.0592
v  156.3941 300.0938 219.4678
v  134.4740 300.5569 232.3900
v  156.1585 299.5592 219.1723
v  156.0915 299.0923 219.1541
v  144.8185 299.3804 225.6940
v  144.8423 299.8729 225.7379
v  134.2344 299.4444 232.0409
v  134.2604 299.9683 232.0873
v  134.1570 298.9363 231.9056
v  144.7462 298.9029 225.5665
v  155.9776 298.6393 219.0533
v  155.8194 298.2138 218.8711
v  144.6269 298.4551 225.3578
v  134.0297 298.4599 231.6837
v  133.8571 298.0289 231.3838
v  144.4649 298.0498 225.0756
v  155.6223 297.8282 218.6141
v  155.3917 297.4950 218.2882
v  144.2646 297.7007 224.7273
v  133.6438 297.6574 231.0134
v  133.3969 297.3555 230.5848
v  144.0325 297.4168 224.3245
v  155.1349 297.2236 217.9044
v  154.8596 297.0238 217.4729
v  143.7753 297.2082 223.8786
v  133.1233 297.1337 230.1105
v  132.8317 296.9971 229.6052
v  143.5013 297.0799 223.4035
v  154.5747 296.9008 217.0075
v  154.2890 296.8598 216.5221
v  143.2185 297.0372 222.9136
v  132.5309 296.9517 229.0841
v  132.2300 296.9971 228.5630
v  142.9355 297.0799 222.4238
v  154.0113 296.9008 216.0321
v  153.7506 297.0238 215.5528
v  142.6612 297.2082 221.9490
v  131.9382 297.1337 228.0579
v  131.6642 297.3555 227.5837
v  142.4035 297.4168 221.5033
v  153.5142 297.2236 215.0987
v  153.3100 297.4951 214.6844
v  142.1706 297.7007 221.1009
v  131.4165 297.6574 227.1557
v  131.2024 298.0289 226.7858
v  141.9691 298.0498 220.7532
v  153.1433 297.8283 214.3216
v  153.0193 298.2139 214.0224
v  141.8058 298.4551 220.4720
v  131.0289 298.4599 226.4862
v  130.9005 298.9363 226.2651
v  141.6848 298.9029 220.2642
v  152.9408 298.6393 213.7942
v  152.9106 299.0924 213.6451
v  141.6106 299.3805 220.1377
v  130.8219 299.4444 226.1303
v  130.7948 299.9683 226.0847
v  141.5845 299.8729 220.0951
v  152.9286 299.5592 213.5778
v  152.9950 300.0262 213.5959
v  141.6083 300.3653 220.1391
v  130.8208 300.4921 226.1309
v  130.8982 301.0002 226.2663
v  141.6802 300.8429 220.2667
v  153.1072 300.4796 213.6974
v  153.2628 300.9056 213.8808
v  141.7990 301.2908 220.4755
v  131.0255 301.4767 226.4879
v  131.1981 301.9078 226.7880
v  141.9605 301.6960 220.7579
v  153.4569 301.2917 214.1395
v  153.6845 301.6255 214.4672
v  142.1603 302.0454 221.1065
v  131.4113 302.2794 227.1583
v  131.6584 302.5814 227.5868
v  142.3918 302.3294 221.5096
v  153.9381 301.8974 214.8532
v  154.2109 302.0975 215.2864
v  142.6485 302.5380 221.9560
v  131.9320 302.8033 228.0612
v  132.2235 302.9398 228.5667
v  142.9223 302.6664 222.4313
v  154.4942 302.2208 215.7529
v  154.7793 302.2619 216.2389
v  143.2050 302.7091 222.9214
v  132.5244 302.9853 229.0878
v  132.8253 302.9398 229.6090
v  143.4881 302.6664 223.4113
v  155.0575 302.2208 216.7289
v  155.3198 302.0977 217.2076
v  143.7627 302.5380 223.8861
v  133.1173 302.8033 230.1142
v  133.3913 302.5814 230.5884
v  144.0209 302.3294 224.3316
v  155.5585 301.8975 217.6605
v  155.7658 301.6255 218.0732
v  144.2543 302.0454 224.7337
v  133.6389 302.2794 231.0165
v  133.8530 301.9078 231.3864
v  144.4563 301.6960 225.0810
v  155.9359 301.2918 218.4341
v  156.0630 300.9056 218.7315
v  144.6201 301.2908 225.3620
v  134.0266 301.4767 231.6859
v  134.1549 301.0002 231.9071
v  144.7416 300.8429 225.5694
v  156.1440 300.4796 218.9580
v  156.1760 300.0262 219.1058
v  144.8161 300.3653 225.6955
v  134.2334 300.4921 232.0416
# 216 vertices

vn 0.4971 -0.1043 0.8614
vn 0.4972 -0.1008 0.8618
vn 0.5112 -0.1008 0.8536
vn 0.5112 -0.1007 0.8536
vn 0.4903 -0.2935 0.8207
vn 0.4903 -0.2933 0.8207
vn 0.4741 -0.2934 0.8302
vn 0.4728 -0.3027 0.8275
vn 0.4306 -0.4853 0.7610
vn 0.4337 -0.4727 0.7671
vn 0.4515 -0.4727 0.7568
vn 0.3994 -0.6261 0.6697
vn 0.3808 -0.6261 0.6804
vn 0.3759 -0.6391 0.6710
vn 0.3116 -0.7656 0.5628
vn 0.3175 -0.7546 0.5742
vn 0.3364 -0.7546 0.5634
vn 0.3364 -0.7547 0.5633
vn 0.2679 -0.8535 0.4470
vn 0.2679 -0.8536 0.4468
vn 0.2490 -0.8536 0.4576
vn 0.2432 -0.8612 0.4463
vn 0.1708 -0.9311 0.3223
vn 0.1760 -0.9266 0.3323
vn 0.1946 -0.9267 0.3216
vn 0.1945 -0.9268 0.3214
vn 0.1200 -0.9737 0.1937
vn 0.1200 -0.9737 0.1935
vn 0.1017 -0.9737 0.2041
vn 0.0985 -0.9753 0.1978
vn 0.0244 -0.9973 0.0699
vn 0.0256 -0.9971 0.0723
vn 0.0436 -0.9971 0.0619
vn 0.0436 -0.9971 0.0618
vn -0.0317 -0.9971 -0.0686
vn -0.0318 -0.9971 -0.0687
vn -0.0497 -0.9971 -0.0584
vn -0.0485 -0.9973 -0.0560
vn -0.1223 -0.9753 -0.1840
vn -0.1256 -0.9737 -0.1903
vn -0.1076 -0.9737 -0.2007
vn -0.1077 -0.9737 -0.2008
vn -0.1811 -0.9267 -0.3291
vn -0.1812 -0.9267 -0.3293
vn -0.1993 -0.9266 -0.3189
vn -0.1943 -0.9310 -0.3089
vn -0.2655 -0.8612 -0.4333
vn -0.2712 -0.8536 -0.4448
vn -0.2530 -0.8536 -0.4554
vn -0.2531 -0.8535 -0.4555
vn -0.3196 -0.7547 -0.5730
vn -0.3197 -0.7546 -0.5731
vn -0.3379 -0.7546 -0.5625
vn -0.3323 -0.7655 -0.5509
vn -0.3938 -0.6389 -0.6608
vn -0.3982 -0.6262 -0.6703
vn -0.3802 -0.6262 -0.6807
vn -0.3803 -0.6261 -0.6808
vn -0.4296 -0.4728 -0.7693
vn -0.4297 -0.4727 -0.7694
vn -0.4469 -0.4727 -0.7595
vn -0.4442 -0.4855 -0.7530
vn -0.4806 -0.3025 -0.8231
vn -0.4815 -0.2935 -0.8258
vn -0.4656 -0.2935 -0.8349
vn -0.4656 -0.2934 -0.8349
vn -0.4836 -0.1007 -0.8695
vn -0.4976 -0.1007 -0.8616
vn -0.4976 -0.1045 -0.8611
vn -0.4932 0.1041 -0.8637
vn -0.4935 0.1007 -0.8639
vn -0.4823 0.1007 -0.8702
vn -0.4616 0.2934 -0.8371
vn -0.4616 0.2935 -0.8371
vn -0.4697 0.2935 -0.8326
vn -0.4679 0.3020 -0.8306
vn -0.4238 0.4849 -0.7651
vn -0.4279 0.4727 -0.7704
vn -0.4233 0.4727 -0.7729
vn -0.3718 0.6259 -0.6855
vn -0.3718 0.6261 -0.6854
vn -0.3729 0.6261 -0.6848
vn -0.3671 0.6382 -0.6767
vn -0.3004 0.7648 -0.5699
vn -0.3074 0.7545 -0.5799
vn -0.3095 0.7545 -0.5787
vn -0.2416 0.8533 -0.4620
vn -0.2367 0.8532 -0.4648
vn -0.2298 0.8605 -0.4546
vn -0.1557 0.9305 -0.3316
vn -0.1615 0.9263 -0.3403
vn -0.1687 0.9265 -0.3363
vn -0.1687 0.9265 -0.3362
vn -0.0946 0.9735 -0.2082
vn -0.0947 0.9735 -0.2083
vn -0.0859 0.9732 -0.2133
vn -0.0822 0.9748 -0.2076
vn -0.0075 0.9968 -0.0798
vn -0.0088 0.9966 -0.0818
vn -0.0184 0.9969 -0.0763
vn -0.0184 0.9969 -0.0765
vn 0.0570 0.9969 0.0542
vn 0.0569 0.9969 0.0541
vn 0.0666 0.9966 0.0485
vn 0.0653 0.9968 0.0464
vn 0.1384 0.9748 0.1751
vn 0.1421 0.9732 0.1809
vn 0.1331 0.9735 0.1862
vn 0.1331 0.9735 0.1861
vn 0.2068 0.9266 0.3142
vn 0.2144 0.9263 0.3097
vn 0.2088 0.9305 0.3008
vn 0.2783 0.8605 0.4267
vn 0.2847 0.8532 0.4370
vn 0.2793 0.8533 0.4402
vn 0.3464 0.7545 0.5574
vn 0.3492 0.7545 0.5557
vn 0.3427 0.7649 0.5454
vn 0.4019 0.6384 0.6565
vn 0.4072 0.6260 0.6650
vn 0.4077 0.6260 0.6647
vn 0.4577 0.4727 0.7530
vn 0.4577 0.4728 0.7530
vn 0.4537 0.4728 0.7554
vn 0.4502 0.4847 0.7499
vn 0.4850 0.3022 0.8206
vn 0.4866 0.2933 0.8229
vn 0.4942 0.2933 0.8184
vn 0.4942 0.2935 0.8183
vn 0.5125 0.1007 0.8528
vn 0.5015 0.1008 0.8593
vn 0.5013 0.1039 0.8590
vn -0.4970 0.1049 -0.8614
vn -0.4972 0.1008 -0.8618
vn -0.5112 0.1008 -0.8535
vn -0.5112 0.1009 -0.8535
vn -0.4904 0.2933 -0.8207
vn -0.4904 0.2934 -0.8207
vn -0.4741 0.2935 -0.8301
vn -0.4727 0.3030 -0.8275
vn -0.4304 0.4858 -0.7608
vn -0.4337 0.4730 -0.7670
vn -0.4515 0.4729 -0.7567
vn -0.4515 0.4730 -0.7566
vn -0.3995 0.6260 -0.6697
vn -0.3809 0.6261 -0.6804
vn -0.3758 0.6393 -0.6709
vn -0.3114 0.7658 -0.5626
vn -0.3175 0.7548 -0.5741
vn -0.3364 0.7548 -0.5632
vn -0.3364 0.7547 -0.5632
vn -0.2680 0.8535 -0.4469
vn -0.2680 0.8534 -0.4470
vn -0.2492 0.8534 -0.4579
vn -0.2431 0.8612 -0.4463
vn -0.1707 0.9311 -0.3223
vn -0.1759 0.9267 -0.3321
vn -0.1945 0.9268 -0.3214
vn -0.1945 0.9268 -0.3213
vn -0.1202 0.9737 -0.1938
vn -0.1201 0.9737 -0.1937
vn -0.1018 0.9736 -0.2043
vn -0.0984 0.9753 -0.1976
vn -0.0244 0.9973 -0.0699
vn -0.0255 0.9971 -0.0721
vn -0.0436 0.9971 -0.0617
vn 0.0316 0.9971 0.0686
vn 0.0496 0.9971 0.0582
vn 0.0484 0.9973 0.0560
vn 0.1223 0.9753 0.1839
vn 0.1257 0.9736 0.1905
vn 0.1077 0.9737 0.2009
vn 0.1077 0.9737 0.2010
vn 0.1810 0.9268 0.3290
vn 0.1811 0.9267 0.3292
vn 0.1992 0.9267 0.3187
vn 0.1941 0.9311 0.3087
vn 0.2655 0.8612 0.4333
vn 0.2714 0.8534 0.4450
vn 0.2531 0.8535 0.4556
vn 0.3195 0.7547 0.5729
vn 0.3195 0.7548 0.5728
vn 0.3378 0.7549 0.5622
vn 0.3322 0.7657 0.5508
vn 0.3937 0.6393 0.6606
vn 0.3984 0.6259 0.6705
vn 0.3803 0.6258 0.6810
vn 0.3802 0.6261 0.6808
vn 0.4296 0.4728 0.7694
vn 0.4295 0.4731 0.7692
vn 0.4469 0.4731 0.7593
vn 0.4441 0.4857 0.7529
vn 0.4806 0.3030 0.8229
vn 0.4816 0.2934 0.8258
vn 0.4655 0.2934 0.8350
vn 0.4655 0.2935 0.8349
vn 0.4836 0.1008 0.8695
vn 0.4836 0.1009 0.8695
vn 0.4976 0.1010 0.8615
vn 0.4976 0.1048 0.8611
vn 0.4932 -0.1036 0.8637
vn 0.4935 -0.1010 0.8639
vn 0.4822 -0.1010 0.8702
vn 0.4822 -0.1007 0.8703
vn 0.4616 -0.2933 0.8372
vn 0.4616 -0.2932 0.8372
vn 0.4698 -0.2932 0.8327
vn 0.4680 -0.3017 0.8307
vn 0.4239 -0.4844 0.7652
vn 0.4279 -0.4726 0.7704
vn 0.4232 -0.4726 0.7730
vn 0.3718 -0.6260 0.6855
vn 0.3729 -0.6260 0.6848
vn 0.3672 -0.6380 0.6768
vn 0.3006 -0.7646 0.5701
vn 0.3074 -0.7544 0.5800
vn 0.3095 -0.7544 0.5789
vn 0.2416 -0.8533 0.4621
vn 0.2417 -0.8532 0.4622
vn 0.2368 -0.8531 0.4649
vn 0.2300 -0.8604 0.4548
vn 0.1558 -0.9304 0.3316
vn 0.1614 -0.9264 0.3401
vn 0.1686 -0.9266 0.3361
vn 0.1685 -0.9266 0.3361
vn 0.0946 -0.9735 0.2084
vn 0.0947 -0.9734 0.2085
vn 0.0860 -0.9732 0.2134
vn 0.0824 -0.9747 0.2077
vn 0.0076 -0.9968 0.0799
vn 0.0088 -0.9966 0.0817
vn 0.0183 -0.9969 0.0763
vn 0.0184 -0.9969 0.0764
vn -0.0570 -0.9969 -0.0541
vn -0.0569 -0.9969 -0.0539
vn -0.0665 -0.9966 -0.0484
vn -0.0653 -0.9968 -0.0465
vn -0.1383 -0.9748 -0.1751
vn -0.1421 -0.9732 -0.1811
vn -0.1332 -0.9734 -0.1863
vn -0.1331 -0.9735 -0.1861
vn -0.2068 -0.9266 -0.3140
vn -0.2068 -0.9266 -0.3141
vn -0.2143 -0.9264 -0.3097
vn -0.2089 -0.9304 -0.3011
vn -0.2784 -0.8603 -0.4270
vn -0.2847 -0.8531 -0.4372
vn -0.2794 -0.8532 -0.4403
vn -0.3465 -0.7545 -0.5574
vn -0.3466 -0.7544 -0.5575
vn -0.3492 -0.7543 -0.5559
vn -0.3428 -0.7647 -0.5456
vn -0.4020 -0.6381 -0.6567
vn -0.4072 -0.6260 -0.6651
vn -0.4078 -0.6260 -0.6647
vn -0.4078 -0.6261 -0.6647
vn -0.4578 -0.4726 -0.7530
vn -0.4578 -0.4728 -0.7529
vn -0.4536 -0.4728 -0.7554
vn -0.4503 -0.4844 -0.7501
vn -0.4851 -0.3018 -0.8207
vn -0.4865 -0.2932 -0.8230
vn -0.4943 -0.2932 -0.8184
vn -0.4943 -0.2931 -0.8184
vn -0.5126 -0.1008 -0.8527
vn -0.5126 -0.1007 -0.8527
vn -0.5015 -0.1007 -0.8593
vn -0.5013 -0.1035 -0.8591
# 268 vertex normals

g Cylinder002
s off
f 1//1 2//1 3//1 
f 3//2 4//2 1//2 
f 5//3 1//3 4//3 
f 4//4 6//4 5//4 
f 1//5 5//5 7//5 
f 7//6 8//6 1//6 
f 2//7 1//7 8//7 
f 8//8 9//8 2//8 
f 10//9 11//9 9//9 
f 9//10 8//10 10//10 
f 12//11 10//11 8//11 
f 8//11 7//11 12//11 
f 10//12 12//12 13//12 
f 13//12 14//12 10//12 
f 11//13 10//13 14//13 
f 14//14 15//14 11//14 
f 16//15 17//15 15//15 
f 15//16 14//16 16//16 
f 18//17 16//17 14//17 
f 14//18 13//18 18//18 
f 16//19 18//19 19//19 
f 19//20 20//20 16//20 
f 17//21 16//21 20//21 
f 20//22 21//22 17//22 
f 22//23 23//23 21//23 
f 21//24 20//24 22//24 
f 24//25 22//25 20//25 
f 20//26 19//26 24//26 
f 22//27 24//27 25//27 
f 25//28 26//28 22//28 
f 23//29 22//29 26//29 
f 26//30 27//30 23//30 
f 28//31 29//31 27//31 
f 27//32 26//32 28//32 
f 30//33 28//33 26//33 
f 26//34 25//34 30//34 
f 28//35 30//35 31//35 
f 31//36 32//36 28//36 
f 29//37 28//37 32//37 
f 32//38 33//38 29//38 
f 34//39 35//39 33//39 
f 33//40 32//40 34//40 
f 36//41 34//41 32//41 
f 32//42 31//42 36//42 
f 34//43 36//43 37//43 
f 37//44 38//44 34//44 
f 35//45 34//45 38//45 
f 38//46 39//46 35//46 
f 40//47 41//47 39//47 
f 39//48 38//48 40//48 
f 42//49 40//49 38//49 
f 38//50 37//50 42//50 
f 40//51 42//51 43//51 
f 43//52 44//52 40//52 
f 41//53 40//53 44//53 
f 44//54 45//54 41//54 
f 46//55 47//55 45//55 
f 45//56 44//56 46//56 
f 48//57 46//57 44//57 
f 44//58 43//58 48//58 
f 46//59 48//59 49//59 
f 49//60 50//60 46//60 
f 47//61 46//61 50//61 
f 50//62 51//62 47//62 
f 52//63 53//63 51//63 
f 51//64 50//64 52//64 
f 54//65 52//65 50//65 
f 50//66 49//66 54//66 
f 52//67 54//67 55//67 
f 55//67 56//67 52//67 
f 53//68 52//68 56//68 
f 56//69 57//69 53//69 
f 58//70 59//70 57//70 
f 57//71 56//71 58//71 
f 60//72 58//72 56//72 
f 56//72 55//72 60//72 
f 58//73 60//73 61//73 
f 61//74 62//74 58//74 
f 59//75 58//75 62//75 
f 62//76 63//76 59//76 
f 64//77 65//77 63//77 
f 63//78 62//78 64//78 
f 66//79 64//79 62//79 
f 62//79 61//79 66//79 
f 64//80 66//80 67//80 
f 67//81 68//81 64//81 
f 65//82 64//82 68//82 
f 68//83 69//83 65//83 
f 70//84 71//84 69//84 
f 69//85 68//85 70//85 
f 72//86 70//86 68//86 
f 68//86 67//86 72//86 
f 70//87 72//87 73//87 
f 73//87 74//87 70//87 
f 71//88 70//88 74//88 
f 74//89 75//89 71//89 
f 76//90 77//90 75//90 
f 75//91 74//91 76//91 
f 78//92 76//92 74//92 
f 74//93 73//93 78//93 
f 76//94 78//94 79//94 
f 79//95 80//95 76//95 
f 77//96 76//96 80//96 
f 80//97 81//97 77//97 
f 82//98 83//98 81//98 
f 81//99 80//99 82//99 
f 84//100 82//100 80//100 
f 80//101 79//101 84//101 
f 82//102 84//102 85//102 
f 85//103 86//103 82//103 
f 83//104 82//104 86//104 
f 86//105 87//105 83//105 
f 88//106 89//106 87//106 
f 87//107 86//107 88//107 
f 90//108 88//108 86//108 
f 86//109 85//109 90//109 
f 88//110 90//110 91//110 
f 91//110 92//110 88//110 
f 89//111 88//111 92//111 
f 92//112 93//112 89//112 
f 94//113 95//113 93//113 
f 93//114 92//114 94//114 
f 96//115 94//115 92//115 
f 92//115 91//115 96//115 
f 94//116 96//116 97//116 
f 97//116 98//116 94//116 
f 95//117 94//117 98//117 
f 98//118 99//118 95//118 
f 100//119 101//119 99//119 
f 99//120 98//120 100//120 
f 102//121 100//121 98//121 
f 98//121 97//121 102//121 
f 100//122 102//122 103//122 
f 103//123 104//123 100//123 
f 101//124 100//124 104//124 
f 104//125 105//125 101//125 
f 106//126 107//126 105//126 
f 105//127 104//127 106//127 
f 108//128 106//128 104//128 
f 104//129 103//129 108//129 
f 106//130 108//130 6//130 
f 6//130 4//130 106//130 
f 107//131 106//131 4//131 
f 4//132 3//132 107//132 
f 109//133 110//133 111//133 
f 111//134 112//134 109//134 
f 112//135 111//135 113//135 
f 113//136 114//136 112//136 
f 115//137 113//137 111//137 
f 111//138 116//138 115//138 
f 116//139 111//139 110//139 
f 110//140 117//140 116//140 
f 117//141 118//141 119//141 
f 119//142 116//142 117//142 
f 116//143 119//143 120//143 
f 120//144 115//144 116//144 
f 121//145 120//145 119//145 
f 119//145 122//145 121//145 
f 122//146 119//146 118//146 
f 118//147 123//147 122//147 
f 123//148 124//148 125//148 
f 125//149 122//149 123//149 
f 122//150 125//150 126//150 
f 126//151 121//151 122//151 
f 127//152 126//152 125//152 
f 125//153 128//153 127//153 
f 128//154 125//154 124//154 
f 124//155 129//155 128//155 
f 129//156 130//156 131//156 
f 131//157 128//157 129//157 
f 128//158 131//158 132//158 
f 132//159 127//159 128//159 
f 133//160 132//160 131//160 
f 131//161 134//161 133//161 
f 134//162 131//162 130//162 
f 130//163 135//163 134//163 
f 135//164 136//164 137//164 
f 137//165 134//165 135//165 
f 134//166 137//166 138//166 
f 138//166 133//166 134//166 
f 139//167 138//167 137//167 
f 137//167 140//167 139//167 
f 140//168 137//168 136//168 
f 136//169 141//169 140//169 
f 141//170 142//170 143//170 
f 143//171 140//171 141//171 
f 140//172 143//172 144//172 
f 144//173 139//173 140//173 
f 145//174 144//174 143//174 
f 143//175 146//175 145//175 
f 146//176 143//176 142//176 
f 142//177 147//177 146//177 
f 147//178 148//178 149//178 
f 149//179 146//179 147//179 
f 146//180 149//180 150//180 
f 150//180 145//180 146//180 
f 151//181 150//181 149//181 
f 149//182 152//182 151//182 
f 152//183 149//183 148//183 
f 148//184 153//184 152//184 
f 153//185 154//185 155//185 
f 155//186 152//186 153//186 
f 152//187 155//187 156//187 
f 156//188 151//188 152//188 
f 157//189 156//189 155//189 
f 155//190 158//190 157//190 
f 158//191 155//191 154//191 
f 154//192 159//192 158//192 
f 159//193 160//193 161//193 
f 161//194 158//194 159//194 
f 158//195 161//195 162//195 
f 162//196 157//196 158//196 
f 163//197 162//197 161//197 
f 161//198 164//198 163//198 
f 164//199 161//199 160//199 
f 160//200 165//200 164//200 
f 165//201 166//201 167//201 
f 167//202 164//202 165//202 
f 164//203 167//203 168//203 
f 168//204 163//204 164//204 
f 169//205 168//205 167//205 
f 167//206 170//206 169//206 
f 170//207 167//207 166//207 
f 166//208 171//208 170//208 
f 171//209 172//209 173//209 
f 173//210 170//210 171//210 
f 170//211 173//211 174//211 
f 174//211 169//211 170//211 
f 175//212 174//212 173//212 
f 173//212 176//212 175//212 
f 176//213 173//213 172//213 
f 172//214 177//214 176//214 
f 177//215 178//215 179//215 
f 179//216 176//216 177//216 
f 176//217 179//217 180//217 
f 180//217 175//217 176//217 
f 181//218 180//218 179//218 
f 179//219 182//219 181//219 
f 182//220 179//220 178//220 
f 178//221 183//221 182//221 
f 183//222 184//222 185//222 
f 185//223 182//223 183//223 
f 182//224 185//224 186//224 
f 186//225 181//225 182//225 
f 187//226 186//226 185//226 
f 185//227 188//227 187//227 
f 188//228 185//228 184//228 
f 184//229 189//229 188//229 
f 189//230 190//230 191//230 
f 191//231 188//231 189//231 
f 188//232 191//232 192//232 
f 192//233 187//233 188//233 
f 193//234 192//234 191//234 
f 191//235 194//235 193//235 
f 194//236 191//236 190//236 
f 190//237 195//237 194//237 
f 195//238 196//238 197//238 
f 197//239 194//239 195//239 
f 194//240 197//240 198//240 
f 198//241 193//241 194//241 
f 199//242 198//242 197//242 
f 197//243 200//243 199//243 
f 200//244 197//244 196//244 
f 196//245 201//245 200//245 
f 201//246 202//246 203//246 
f 203//247 200//247 201//247 
f 200//248 203//248 204//248 
f 204//248 199//248 200//248 
f 205//249 204//249 203//249 
f 203//250 206//250 205//250 
f 206//251 203//251 202//251 
f 202//252 207//252 206//252 
f 207//253 208//253 209//253 
f 209//254 206//254 207//254 
f 206//255 209//255 210//255 
f 210//256 205//256 206//256 
f 211//257 210//257 209//257 
f 209//258 212//258 211//258 
f 212//259 209//259 208//259 
f 208//260 213//260 212//260 
f 213//261 214//261 215//261 
f 215//262 212//262 213//262 
f 212//263 215//263 216//263 
f 216//264 211//264 212//264 
f 114//265 216//265 215//265 
f 215//266 112//266 114//266 
f 112//267 215//267 214//267 
f 214//268 109//268 112//268 
# 288 faces

