# 3ds Max Wavefront OBJ Exporter v0.97b - (c)2007 guruware
# File Created: 20.05.2017 21:13:27

#
# object 333right
#

v  56.0000 0.0000 0.0001
v  28.0000 0.0000 48.4975
v  56.0000 56.0000 0.0001
v  28.0000 56.0000 48.4975
# 4 vertices

vn -0.8660 0.0000 -0.5000
# 1 vertex normals

vt 0.0000 1.0000 0.5000
vt 1.0000 1.0000 0.5000
vt 1.0000 0.0000 0.5000
vt 0.0000 0.0000 0.5000
vt 1.0000 0.0000 0.5000
vt 0.0000 1.0000 0.5000
# 6 texture coords

g 333right
s off
f 1/4/1 2/5/1 3/6/1 
f 2/3/1 4/2/1 3/1/1 
# 2 faces

