# 3ds Max Wavefront OBJ Exporter v0.97b - (c)2007 guruware
# File Created: 20.05.2017 22:21:34

#
# object Cylinder003
#

v  1.2364 29.8520 26.8862
v  2.5390 29.7814 26.8795
v  2.5444 29.9117 26.8931
v  1.2364 29.9881 26.8999
v  0.0054 29.8676 26.9358
v  0.0054 30.0113 26.9503
v  0.0054 29.7283 26.8930
v  1.2364 29.7201 26.8457
v  2.5337 29.6550 26.8393
v  1.2364 29.5964 26.7793
v  2.5287 29.5366 26.7734
v  0.0054 29.5976 26.8229
v  0.0054 29.4795 26.7280
v  1.2364 29.4844 26.6894
v  2.5243 29.4294 26.6842
v  1.2364 29.3879 26.5784
v  2.5204 29.3370 26.5740
v  0.0054 29.3776 26.6108
v  0.0054 29.2948 26.4752
v  1.2364 29.3095 26.4500
v  2.5173 29.2619 26.4466
v  1.2364 29.2519 26.3078
v  2.5150 29.2067 26.3054
v  0.0054 29.2339 26.3250
v  0.0054 29.1965 26.1650
v  1.2364 29.2165 26.1563
v  2.5135 29.1727 26.1551
v  1.2364 29.2047 26.0000
v  2.5131 29.1614 26.0000
v  0.0054 29.1840 26.0000
v  0.0054 29.1965 25.8350
v  1.2364 29.2165 25.8437
v  2.5135 29.1727 25.8449
v  1.2364 29.2519 25.6922
v  2.5150 29.2067 25.6946
v  0.0054 29.2339 25.6750
v  0.0054 29.2948 25.5248
v  1.2364 29.3095 25.5500
v  2.5173 29.2619 25.5534
v  1.2364 29.3879 25.4216
v  2.5204 29.3370 25.4259
v  0.0054 29.3776 25.3892
v  0.0054 29.4795 25.2720
v  1.2364 29.4844 25.3106
v  2.5243 29.4294 25.3158
v  1.2364 29.5964 25.2207
v  2.5287 29.5366 25.2266
v  0.0054 29.5976 25.1771
v  0.0054 29.7283 25.1070
v  1.2364 29.7201 25.1543
v  2.5337 29.6550 25.1607
v  1.2364 29.8520 25.1138
v  2.5390 29.7814 25.1205
v  0.0054 29.8676 25.0642
v  0.0054 30.0113 25.0497
v  1.2364 29.9881 25.1000
v  2.5444 29.9117 25.1068
v  1.2364 30.1241 25.1138
v  2.5499 30.0419 25.1205
v  0.0054 30.1550 25.0642
v  0.0054 30.2943 25.1070
v  1.2364 30.2560 25.1543
v  2.5551 30.1683 25.1607
v  1.2364 30.3798 25.2207
v  2.5601 30.2868 25.2266
v  0.0054 30.4249 25.1771
v  0.0054 30.5431 25.2720
v  1.2364 30.4917 25.3106
v  2.5646 30.3940 25.3158
v  1.2364 30.5882 25.4216
v  2.5684 30.4864 25.4259
v  0.0054 30.6450 25.3892
v  0.0054 30.7278 25.5248
v  1.2364 30.6666 25.5500
v  2.5716 30.5615 25.5534
v  1.2364 30.7242 25.6922
v  2.5739 30.6166 25.6946
v  0.0054 30.7887 25.6750
v  0.0054 30.8261 25.8350
v  1.2364 30.7597 25.8437
v  2.5753 30.6506 25.8449
v  1.2364 30.7715 26.0000
v  2.5758 30.6619 26.0000
v  0.0054 30.8386 26.0000
v  0.0054 30.8261 26.1650
v  1.2364 30.7597 26.1563
v  2.5753 30.6506 26.1551
v  1.2364 30.7242 26.3077
v  2.5739 30.6166 26.3054
v  0.0054 30.7887 26.3250
v  0.0054 30.7278 26.4752
v  1.2364 30.6666 26.4500
v  2.5716 30.5615 26.4466
v  1.2364 30.5882 26.5784
v  2.5684 30.4864 26.5740
v  0.0054 30.6450 26.6108
v  0.0054 30.5431 26.7280
v  1.2364 30.4917 26.6894
v  2.5646 30.3940 26.6842
v  1.2364 30.3798 26.7793
v  2.5601 30.2868 26.7734
v  0.0054 30.4249 26.8229
v  0.0054 30.2943 26.8930
v  1.2364 30.2560 26.8457
v  2.5551 30.1683 26.8393
v  1.2364 30.1241 26.8862
v  2.5499 30.0419 26.8795
v  0.0054 30.1550 26.9358
v  2.5442 29.9115 26.7882
v  2.5393 29.7975 26.7762
v  1.2361 29.8678 26.7829
v  1.2360 29.9880 26.7950
v  0.0021 29.8834 26.8328
v  0.0021 30.0113 26.8458
v  0.0022 29.7595 26.7947
v  1.2362 29.7513 26.7471
v  2.5345 29.6870 26.7410
v  2.5299 29.5831 26.6832
v  1.2363 29.6420 26.6884
v  0.0023 29.6432 26.7323
v  0.0023 29.5380 26.6479
v  1.2364 29.5431 26.6090
v  2.5257 29.4890 26.6048
v  2.5220 29.4077 26.5078
v  1.2364 29.4579 26.5110
v  0.0024 29.4473 26.5435
v  0.0024 29.3737 26.4228
v  1.2365 29.3886 26.3975
v  2.5190 29.3415 26.3954
v  2.5167 29.2927 26.2706
v  1.2365 29.3377 26.2719
v  0.0024 29.3195 26.2892
v  0.0024 29.2862 26.1468
v  1.2365 29.3064 26.1381
v  2.5153 29.2627 26.1375
v  2.5148 29.2527 26.0000
v  1.2365 29.2960 26.0000
v  0.0025 29.2751 26.0000
v  0.0024 29.2862 25.8531
v  1.2365 29.3064 25.8619
v  2.5153 29.2627 25.8626
v  2.5167 29.2927 25.7295
v  1.2365 29.3377 25.7281
v  0.0024 29.3195 25.7108
v  0.0024 29.3737 25.5771
v  1.2365 29.3886 25.6025
v  2.5189 29.3415 25.6046
v  2.5219 29.4077 25.4921
v  1.2364 29.4579 25.4890
v  0.0024 29.4473 25.4564
v  0.0023 29.5380 25.3521
v  1.2364 29.5431 25.3909
v  2.5256 29.4890 25.3951
v  2.5299 29.5831 25.3168
v  1.2363 29.6420 25.3116
v  0.0023 29.6432 25.2677
v  0.0022 29.7595 25.2053
v  1.2362 29.7513 25.2529
v  2.5345 29.6870 25.2590
v  2.5393 29.7975 25.2237
v  1.2361 29.8678 25.2171
v  0.0021 29.8834 25.1672
v  0.0021 30.0113 25.1542
v  1.2360 29.9880 25.2049
v  2.5442 29.9115 25.2117
v  2.5491 30.0254 25.2237
v  1.2358 30.1082 25.2171
v  0.0020 30.1391 25.1672
v  0.0019 30.2631 25.2052
v  1.2357 30.2247 25.2529
v  2.5537 30.1361 25.2588
v  2.5580 30.2400 25.3165
v  1.2355 30.3341 25.3115
v  0.0019 30.3794 25.2676
v  0.0018 30.4846 25.3521
v  1.2354 30.4329 25.3909
v  2.5619 30.3343 25.3949
v  2.5652 30.4157 25.4919
v  1.2352 30.5182 25.4889
v  0.0018 30.5753 25.4564
v  0.0018 30.6490 25.5771
v  1.2351 30.5875 25.6024
v  2.5679 30.4821 25.6045
v  2.5699 30.5309 25.7293
v  1.2351 30.6384 25.7281
v  0.0017 30.7032 25.7107
v  0.0017 30.7365 25.8531
v  1.2350 30.6698 25.8619
v  2.5711 30.5610 25.8625
v  2.5715 30.5711 26.0000
v  1.2350 30.6802 26.0000
v  0.0017 30.7476 26.0000
v  0.0017 30.7365 26.1469
v  1.2350 30.6698 26.1381
v  2.5711 30.5610 26.1375
v  2.5698 30.5310 26.2707
v  1.2350 30.6384 26.2719
v  0.0017 30.7032 26.2893
v  0.0018 30.6490 26.4229
v  1.2351 30.5875 26.3976
v  2.5679 30.4821 26.3955
v  2.5652 30.4157 26.5080
v  1.2352 30.5182 26.5111
v  0.0018 30.5753 26.5436
v  0.0018 30.4846 26.6479
v  1.2354 30.4329 26.6091
v  2.5619 30.3343 26.6051
v  2.5580 30.2400 26.6834
v  1.2355 30.3341 26.6885
v  0.0019 30.3794 26.7324
v  0.0019 30.2631 26.7948
v  1.2357 30.2247 26.7471
v  2.5537 30.1361 26.7412
v  2.5491 30.0254 26.7763
v  1.2358 30.1082 26.7829
v  0.0020 30.1391 26.8328
# 216 vertices

vn -0.0002 -0.1043 0.9945
vn -0.0003 -0.1008 0.9949
vn 0.0159 -0.1008 0.9948
vn 0.0159 -0.1007 0.9948
vn 0.0143 -0.2935 0.9558
vn 0.0143 -0.2933 0.9559
vn -0.0045 -0.2934 0.9560
vn -0.0043 -0.3027 0.9531
vn -0.0076 -0.4853 0.8743
vn -0.0079 -0.4727 0.8812
vn 0.0126 -0.4727 0.8811
vn 0.0111 -0.6261 0.7796
vn -0.0104 -0.6261 0.7797
vn -0.0099 -0.6391 0.7691
vn -0.0116 -0.7656 0.6432
vn -0.0121 -0.7546 0.6561
vn 0.0097 -0.7546 0.6561
vn 0.0097 -0.7547 0.6561
vn 0.0086 -0.8535 0.5211
vn 0.0086 -0.8536 0.5209
vn -0.0132 -0.8536 0.5208
vn -0.0126 -0.8612 0.5081
vn -0.0132 -0.9311 0.3646
vn -0.0137 -0.9266 0.3758
vn 0.0077 -0.9267 0.3758
vn 0.0077 -0.9268 0.3756
vn 0.0071 -0.9737 0.2277
vn 0.0071 -0.9737 0.2276
vn -0.0139 -0.9737 0.2276
vn -0.0136 -0.9753 0.2205
vn -0.0138 -0.9973 0.0728
vn -0.0140 -0.9971 0.0754
vn 0.0068 -0.9971 0.0754
vn 0.0069 -0.9971 0.0753
vn 0.0068 -0.9971 -0.0753
vn 0.0069 -0.9971 -0.0754
vn -0.0138 -0.9971 -0.0754
vn -0.0140 -0.9973 -0.0728
vn -0.0140 -0.9753 -0.2205
vn -0.0136 -0.9737 -0.2276
vn 0.0071 -0.9737 -0.2276
vn 0.0071 -0.9737 -0.2277
vn 0.0077 -0.9267 -0.3756
vn 0.0077 -0.9267 -0.3758
vn -0.0131 -0.9266 -0.3758
vn -0.0138 -0.9310 -0.3647
vn -0.0133 -0.8612 -0.5080
vn -0.0125 -0.8536 -0.5208
vn 0.0086 -0.8536 -0.5209
vn 0.0086 -0.8535 -0.5211
vn 0.0097 -0.7546 -0.6561
vn -0.0114 -0.7546 -0.6561
vn -0.0123 -0.7655 -0.6433
vn -0.0107 -0.6389 -0.7692
vn -0.0097 -0.6262 -0.7796
vn 0.0110 -0.6262 -0.7796
vn 0.0111 -0.6261 -0.7797
vn 0.0126 -0.4728 -0.8811
vn 0.0126 -0.4727 -0.8811
vn -0.0073 -0.4727 -0.8812
vn -0.0082 -0.4855 -0.8742
vn -0.0047 -0.3025 -0.9531
vn -0.0041 -0.2935 -0.9560
vn 0.0143 -0.2935 -0.9559
vn 0.0143 -0.2934 -0.9559
vn 0.0159 -0.1007 -0.9948
vn -0.0001 -0.1007 -0.9949
vn -0.0004 -0.1045 -0.9945
vn 0.0048 0.1041 -0.9946
vn 0.0045 0.1007 -0.9949
vn 0.0175 0.1007 -0.9948
vn 0.0188 0.2934 -0.9558
vn 0.0188 0.2935 -0.9558
vn 0.0095 0.2935 -0.9559
vn 0.0101 0.3020 -0.9533
vn 0.0156 0.4849 -0.8744
vn 0.0146 0.4727 -0.8811
vn 0.0199 0.4727 -0.8810
vn 0.0207 0.6259 -0.7796
vn 0.0207 0.6261 -0.7795
vn 0.0194 0.6261 -0.7795
vn 0.0205 0.6382 -0.7696
vn 0.0248 0.7648 -0.6437
vn 0.0238 0.7545 -0.6559
vn 0.0213 0.7545 -0.6560
vn 0.0213 0.7545 -0.6559
vn 0.0218 0.8533 -0.5209
vn 0.0274 0.8532 -0.5208
vn 0.0283 0.8605 -0.5086
vn 0.0309 0.9305 -0.3650
vn 0.0303 0.9263 -0.3755
vn 0.0220 0.9265 -0.3756
vn 0.0220 0.9265 -0.3755
vn 0.0222 0.9735 -0.2276
vn 0.0222 0.9735 -0.2277
vn 0.0322 0.9732 -0.2277
vn 0.0326 0.9748 -0.2208
vn 0.0334 0.9968 -0.0728
vn 0.0333 0.9966 -0.0753
vn 0.0223 0.9969 -0.0753
vn 0.0223 0.9969 -0.0754
vn 0.0223 0.9969 0.0754
vn 0.0223 0.9969 0.0753
vn 0.0334 0.9966 0.0753
vn 0.0333 0.9968 0.0728
vn 0.0323 0.9748 0.2209
vn 0.0326 0.9732 0.2277
vn 0.0222 0.9735 0.2278
vn 0.0222 0.9735 0.2277
vn 0.0220 0.9266 0.3755
vn 0.0308 0.9263 0.3754
vn 0.0304 0.9305 0.3649
vn 0.0276 0.8605 0.5087
vn 0.0281 0.8532 0.5208
vn 0.0218 0.8533 0.5209
vn 0.0213 0.7545 0.6559
vn 0.0245 0.7545 0.6559
vn 0.0241 0.7649 0.6437
vn 0.0198 0.6384 0.7695
vn 0.0201 0.6260 0.7795
vn 0.0207 0.6260 0.7795
vn 0.0199 0.4727 0.8810
vn 0.0199 0.4728 0.8810
vn 0.0152 0.4728 0.8810
vn 0.0150 0.4847 0.8746
vn 0.0097 0.3022 0.9532
vn 0.0099 0.2933 0.9560
vn 0.0188 0.2933 0.9558
vn 0.0188 0.2935 0.9558
vn 0.0175 0.1007 0.9948
vn 0.0047 0.1008 0.9949
vn 0.0046 0.1039 0.9946
vn 0.0002 0.1049 -0.9945
vn 0.0003 0.1008 -0.9949
vn -0.0160 0.1008 -0.9948
vn -0.0160 0.1009 -0.9948
vn -0.0143 0.2933 -0.9559
vn -0.0143 0.2934 -0.9559
vn 0.0045 0.2935 -0.9560
vn 0.0043 0.3030 -0.9530
vn 0.0076 0.4858 -0.8741
vn 0.0079 0.4730 -0.8810
vn -0.0127 0.4729 -0.8810
vn -0.0127 0.4730 -0.8810
vn -0.0111 0.6260 -0.7797
vn 0.0104 0.6261 -0.7797
vn 0.0100 0.6393 -0.7689
vn 0.0116 0.7658 -0.6429
vn 0.0121 0.7548 -0.6559
vn -0.0097 0.7548 -0.6559
vn -0.0097 0.7547 -0.6560
vn -0.0086 0.8535 -0.5210
vn -0.0086 0.8534 -0.5212
vn 0.0131 0.8534 -0.5211
vn 0.0126 0.8612 -0.5080
vn 0.0133 0.9311 -0.3645
vn 0.0137 0.9267 -0.3756
vn -0.0078 0.9268 -0.3756
vn -0.0078 0.9268 -0.3755
vn -0.0072 0.9737 -0.2279
vn -0.0072 0.9737 -0.2278
vn 0.0139 0.9736 -0.2278
vn 0.0136 0.9753 -0.2204
vn 0.0138 0.9973 -0.0727
vn 0.0139 0.9971 -0.0752
vn -0.0069 0.9971 -0.0752
vn -0.0069 0.9971 0.0752
vn -0.0069 0.9971 0.0753
vn 0.0138 0.9971 0.0752
vn 0.0140 0.9973 0.0727
vn 0.0140 0.9753 0.2204
vn 0.0136 0.9736 0.2278
vn -0.0072 0.9737 0.2278
vn -0.0072 0.9737 0.2279
vn -0.0078 0.9268 0.3754
vn -0.0078 0.9267 0.3756
vn 0.0132 0.9267 0.3756
vn 0.0138 0.9311 0.3644
vn 0.0133 0.8612 0.5080
vn 0.0125 0.8534 0.5211
vn -0.0086 0.8535 0.5211
vn -0.0097 0.7547 0.6560
vn -0.0097 0.7548 0.6558
vn 0.0114 0.7549 0.6558
vn 0.0123 0.7657 0.6431
vn 0.0107 0.6393 0.7689
vn 0.0097 0.6259 0.7799
vn -0.0111 0.6258 0.7799
vn -0.0111 0.6261 0.7797
vn -0.0127 0.4728 0.8811
vn -0.0126 0.4731 0.8809
vn 0.0074 0.4731 0.8810
vn 0.0082 0.4857 0.8741
vn 0.0047 0.3030 0.9530
vn 0.0041 0.2934 0.9560
vn -0.0143 0.2934 0.9559
vn -0.0143 0.2935 0.9558
vn -0.0160 0.1008 0.9948
vn -0.0160 0.1009 0.9948
vn 0.0002 0.1010 0.9949
vn 0.0004 0.1048 0.9945
vn -0.0047 -0.1036 0.9946
vn -0.0045 -0.1010 0.9949
vn -0.0175 -0.1010 0.9947
vn -0.0175 -0.1007 0.9948
vn -0.0189 -0.2933 0.9558
vn -0.0189 -0.2932 0.9559
vn -0.0095 -0.2932 0.9560
vn -0.0101 -0.3017 0.9534
vn -0.0155 -0.4844 0.8747
vn -0.0147 -0.4726 0.8811
vn -0.0200 -0.4726 0.8810
vn -0.0208 -0.6260 0.7795
vn -0.0195 -0.6260 0.7796
vn -0.0204 -0.6380 0.7697
vn -0.0247 -0.7646 0.6440
vn -0.0238 -0.7544 0.6560
vn -0.0214 -0.7544 0.6561
vn -0.0218 -0.8533 0.5209
vn -0.0218 -0.8532 0.5211
vn -0.0274 -0.8531 0.5210
vn -0.0282 -0.8604 0.5089
vn -0.0308 -0.9304 0.3651
vn -0.0303 -0.9264 0.3753
vn -0.0221 -0.9266 0.3754
vn -0.0222 -0.9735 0.2278
vn -0.0222 -0.9734 0.2279
vn -0.0322 -0.9732 0.2278
vn -0.0325 -0.9747 0.2211
vn -0.0333 -0.9968 0.0729
vn -0.0333 -0.9966 0.0752
vn -0.0223 -0.9969 0.0752
vn -0.0223 -0.9969 0.0754
vn -0.0223 -0.9969 -0.0754
vn -0.0223 -0.9969 -0.0752
vn -0.0333 -0.9966 -0.0752
vn -0.0333 -0.9968 -0.0729
vn -0.0322 -0.9748 -0.2208
vn -0.0325 -0.9732 -0.2278
vn -0.0222 -0.9734 -0.2279
vn -0.0222 -0.9735 -0.2277
vn -0.0221 -0.9266 -0.3754
vn -0.0307 -0.9264 -0.3753
vn -0.0304 -0.9304 -0.3652
vn -0.0276 -0.8603 -0.5090
vn -0.0280 -0.8531 -0.5210
vn -0.0218 -0.8532 -0.5210
vn -0.0218 -0.8532 -0.5211
vn -0.0214 -0.7545 -0.6559
vn -0.0214 -0.7544 -0.6561
vn -0.0244 -0.7543 -0.6560
vn -0.0241 -0.7647 -0.6439
vn -0.0198 -0.6381 -0.7697
vn -0.0200 -0.6260 -0.7796
vn -0.0208 -0.6260 -0.7796
vn -0.0208 -0.6261 -0.7795
vn -0.0200 -0.4726 -0.8810
vn -0.0200 -0.4728 -0.8810
vn -0.0152 -0.4728 -0.8810
vn -0.0150 -0.4844 -0.8747
vn -0.0097 -0.3018 -0.9533
vn -0.0099 -0.2932 -0.9560
vn -0.0189 -0.2932 -0.9559
vn -0.0189 -0.2931 -0.9559
vn -0.0175 -0.1008 -0.9948
vn -0.0175 -0.1007 -0.9948
vn -0.0046 -0.1006 -0.9949
vn -0.0046 -0.1035 -0.9946
# 268 vertex normals

g Cylinder003
s off
f 1//1 2//1 3//1 
f 3//2 4//2 1//2 
f 5//3 1//3 4//3 
f 4//4 6//4 5//4 
f 1//5 5//5 7//5 
f 7//6 8//6 1//6 
f 2//7 1//7 8//7 
f 8//8 9//8 2//8 
f 10//9 11//9 9//9 
f 9//10 8//10 10//10 
f 12//11 10//11 8//11 
f 8//11 7//11 12//11 
f 10//12 12//12 13//12 
f 13//12 14//12 10//12 
f 11//13 10//13 14//13 
f 14//14 15//14 11//14 
f 16//15 17//15 15//15 
f 15//16 14//16 16//16 
f 18//17 16//17 14//17 
f 14//18 13//18 18//18 
f 16//19 18//19 19//19 
f 19//20 20//20 16//20 
f 17//21 16//21 20//21 
f 20//22 21//22 17//22 
f 22//23 23//23 21//23 
f 21//24 20//24 22//24 
f 24//25 22//25 20//25 
f 20//26 19//26 24//26 
f 22//27 24//27 25//27 
f 25//28 26//28 22//28 
f 23//29 22//29 26//29 
f 26//30 27//30 23//30 
f 28//31 29//31 27//31 
f 27//32 26//32 28//32 
f 30//33 28//33 26//33 
f 26//34 25//34 30//34 
f 28//35 30//35 31//35 
f 31//36 32//36 28//36 
f 29//37 28//37 32//37 
f 32//38 33//38 29//38 
f 34//39 35//39 33//39 
f 33//40 32//40 34//40 
f 36//41 34//41 32//41 
f 32//42 31//42 36//42 
f 34//43 36//43 37//43 
f 37//44 38//44 34//44 
f 35//45 34//45 38//45 
f 38//46 39//46 35//46 
f 40//47 41//47 39//47 
f 39//48 38//48 40//48 
f 42//49 40//49 38//49 
f 38//50 37//50 42//50 
f 40//51 42//51 43//51 
f 43//51 44//51 40//51 
f 41//52 40//52 44//52 
f 44//53 45//53 41//53 
f 46//54 47//54 45//54 
f 45//55 44//55 46//55 
f 48//56 46//56 44//56 
f 44//57 43//57 48//57 
f 46//58 48//58 49//58 
f 49//59 50//59 46//59 
f 47//60 46//60 50//60 
f 50//61 51//61 47//61 
f 52//62 53//62 51//62 
f 51//63 50//63 52//63 
f 54//64 52//64 50//64 
f 50//65 49//65 54//65 
f 52//66 54//66 55//66 
f 55//66 56//66 52//66 
f 53//67 52//67 56//67 
f 56//68 57//68 53//68 
f 58//69 59//69 57//69 
f 57//70 56//70 58//70 
f 60//71 58//71 56//71 
f 56//71 55//71 60//71 
f 58//72 60//72 61//72 
f 61//73 62//73 58//73 
f 59//74 58//74 62//74 
f 62//75 63//75 59//75 
f 64//76 65//76 63//76 
f 63//77 62//77 64//77 
f 66//78 64//78 62//78 
f 62//78 61//78 66//78 
f 64//79 66//79 67//79 
f 67//80 68//80 64//80 
f 65//81 64//81 68//81 
f 68//82 69//82 65//82 
f 70//83 71//83 69//83 
f 69//84 68//84 70//84 
f 72//85 70//85 68//85 
f 68//86 67//86 72//86 
f 70//87 72//87 73//87 
f 73//87 74//87 70//87 
f 71//88 70//88 74//88 
f 74//89 75//89 71//89 
f 76//90 77//90 75//90 
f 75//91 74//91 76//91 
f 78//92 76//92 74//92 
f 74//93 73//93 78//93 
f 76//94 78//94 79//94 
f 79//95 80//95 76//95 
f 77//96 76//96 80//96 
f 80//97 81//97 77//97 
f 82//98 83//98 81//98 
f 81//99 80//99 82//99 
f 84//100 82//100 80//100 
f 80//101 79//101 84//101 
f 82//102 84//102 85//102 
f 85//103 86//103 82//103 
f 83//104 82//104 86//104 
f 86//105 87//105 83//105 
f 88//106 89//106 87//106 
f 87//107 86//107 88//107 
f 90//108 88//108 86//108 
f 86//109 85//109 90//109 
f 88//110 90//110 91//110 
f 91//110 92//110 88//110 
f 89//111 88//111 92//111 
f 92//112 93//112 89//112 
f 94//113 95//113 93//113 
f 93//114 92//114 94//114 
f 96//115 94//115 92//115 
f 92//115 91//115 96//115 
f 94//116 96//116 97//116 
f 97//116 98//116 94//116 
f 95//117 94//117 98//117 
f 98//118 99//118 95//118 
f 100//119 101//119 99//119 
f 99//120 98//120 100//120 
f 102//121 100//121 98//121 
f 98//121 97//121 102//121 
f 100//122 102//122 103//122 
f 103//123 104//123 100//123 
f 101//124 100//124 104//124 
f 104//125 105//125 101//125 
f 106//126 107//126 105//126 
f 105//127 104//127 106//127 
f 108//128 106//128 104//128 
f 104//129 103//129 108//129 
f 106//130 108//130 6//130 
f 6//130 4//130 106//130 
f 107//131 106//131 4//131 
f 4//132 3//132 107//132 
f 109//133 110//133 111//133 
f 111//134 112//134 109//134 
f 112//135 111//135 113//135 
f 113//136 114//136 112//136 
f 115//137 113//137 111//137 
f 111//138 116//138 115//138 
f 116//139 111//139 110//139 
f 110//140 117//140 116//140 
f 117//141 118//141 119//141 
f 119//142 116//142 117//142 
f 116//143 119//143 120//143 
f 120//144 115//144 116//144 
f 121//145 120//145 119//145 
f 119//145 122//145 121//145 
f 122//146 119//146 118//146 
f 118//147 123//147 122//147 
f 123//148 124//148 125//148 
f 125//149 122//149 123//149 
f 122//150 125//150 126//150 
f 126//151 121//151 122//151 
f 127//152 126//152 125//152 
f 125//153 128//153 127//153 
f 128//154 125//154 124//154 
f 124//155 129//155 128//155 
f 129//156 130//156 131//156 
f 131//157 128//157 129//157 
f 128//158 131//158 132//158 
f 132//159 127//159 128//159 
f 133//160 132//160 131//160 
f 131//161 134//161 133//161 
f 134//162 131//162 130//162 
f 130//163 135//163 134//163 
f 135//164 136//164 137//164 
f 137//165 134//165 135//165 
f 134//166 137//166 138//166 
f 138//166 133//166 134//166 
f 139//167 138//167 137//167 
f 137//168 140//168 139//168 
f 140//169 137//169 136//169 
f 136//170 141//170 140//170 
f 141//171 142//171 143//171 
f 143//172 140//172 141//172 
f 140//173 143//173 144//173 
f 144//174 139//174 140//174 
f 145//175 144//175 143//175 
f 143//176 146//176 145//176 
f 146//177 143//177 142//177 
f 142//178 147//178 146//178 
f 147//179 148//179 149//179 
f 149//180 146//180 147//180 
f 146//181 149//181 150//181 
f 150//181 145//181 146//181 
f 151//182 150//182 149//182 
f 149//183 152//183 151//183 
f 152//184 149//184 148//184 
f 148//185 153//185 152//185 
f 153//186 154//186 155//186 
f 155//187 152//187 153//187 
f 152//188 155//188 156//188 
f 156//189 151//189 152//189 
f 157//190 156//190 155//190 
f 155//191 158//191 157//191 
f 158//192 155//192 154//192 
f 154//193 159//193 158//193 
f 159//194 160//194 161//194 
f 161//195 158//195 159//195 
f 158//196 161//196 162//196 
f 162//197 157//197 158//197 
f 163//198 162//198 161//198 
f 161//199 164//199 163//199 
f 164//200 161//200 160//200 
f 160//201 165//201 164//201 
f 165//202 166//202 167//202 
f 167//203 164//203 165//203 
f 164//204 167//204 168//204 
f 168//205 163//205 164//205 
f 169//206 168//206 167//206 
f 167//207 170//207 169//207 
f 170//208 167//208 166//208 
f 166//209 171//209 170//209 
f 171//210 172//210 173//210 
f 173//211 170//211 171//211 
f 170//212 173//212 174//212 
f 174//212 169//212 170//212 
f 175//213 174//213 173//213 
f 173//213 176//213 175//213 
f 176//214 173//214 172//214 
f 172//215 177//215 176//215 
f 177//216 178//216 179//216 
f 179//217 176//217 177//217 
f 176//218 179//218 180//218 
f 180//218 175//218 176//218 
f 181//219 180//219 179//219 
f 179//220 182//220 181//220 
f 182//221 179//221 178//221 
f 178//222 183//222 182//222 
f 183//223 184//223 185//223 
f 185//224 182//224 183//224 
f 182//225 185//225 186//225 
f 186//225 181//225 182//225 
f 187//226 186//226 185//226 
f 185//227 188//227 187//227 
f 188//228 185//228 184//228 
f 184//229 189//229 188//229 
f 189//230 190//230 191//230 
f 191//231 188//231 189//231 
f 188//232 191//232 192//232 
f 192//233 187//233 188//233 
f 193//234 192//234 191//234 
f 191//235 194//235 193//235 
f 194//236 191//236 190//236 
f 190//237 195//237 194//237 
f 195//238 196//238 197//238 
f 197//239 194//239 195//239 
f 194//240 197//240 198//240 
f 198//241 193//241 194//241 
f 199//242 198//242 197//242 
f 197//242 200//242 199//242 
f 200//243 197//243 196//243 
f 196//244 201//244 200//244 
f 201//245 202//245 203//245 
f 203//246 200//246 201//246 
f 200//247 203//247 204//247 
f 204//248 199//248 200//248 
f 205//249 204//249 203//249 
f 203//250 206//250 205//250 
f 206//251 203//251 202//251 
f 202//252 207//252 206//252 
f 207//253 208//253 209//253 
f 209//254 206//254 207//254 
f 206//255 209//255 210//255 
f 210//256 205//256 206//256 
f 211//257 210//257 209//257 
f 209//258 212//258 211//258 
f 212//259 209//259 208//259 
f 208//260 213//260 212//260 
f 213//261 214//261 215//261 
f 215//262 212//262 213//262 
f 212//263 215//263 216//263 
f 216//264 211//264 212//264 
f 114//265 216//265 215//265 
f 215//266 112//266 114//266 
f 112//267 215//267 214//267 
f 214//268 109//268 112//268 
# 288 faces

