# 3ds Max Wavefront OBJ Exporter v0.97b - (c)2007 guruware
# File Created: 17.05.2017 13:14:14

mtllib frame_floor.mtl

#
# object frame_floor
#

v  279.7921 9.9051 444.6601
v  32.5757 9.9051 16.4688
v  5.3152 9.9051 3.0952
v  280.0000 9.9051 478.8633
v  527.0084 9.9051 16.4688
v  554.6848 9.9051 3.0952
v  5.3152 0.0950 3.0952
v  554.6848 0.0950 3.0952
v  280.0000 0.0950 478.8633
# 9 vertices

vn 0.0000 1.0000 -0.0000
vn 0.0000 0.0000 -1.0000
vn -0.8660 0.0000 0.5000
vn 0.8660 0.0000 0.5000
# 4 vertex normals

vt 0.0000 0.0000 0.0000
vt 0.0496 0.0243 0.0000
vt 0.9496 0.0243 0.0000
vt 0.4996 0.8038 0.0000
vt 0.0496 0.0243 0.0000
vt 0.0000 0.0000 0.0000
vt 0.5000 0.8660 0.0000
vt 1.0000 0.0000 0.0000
vt 1.0000 0.0000 0.0000
vt 0.0000 0.0000 0.0000
vt 0.0000 0.0000 0.0000
vt 1.0000 0.0000 0.0000
vt 0.0000 0.0000 0.0000
vt 0.5000 0.8660 0.0000
vt 0.5000 0.8660 0.0000
vt 0.0000 0.0000 0.0000
vt 0.5000 0.8660 0.0000
vt 1.0000 0.0000 0.0000
vt 1.0000 0.0000 0.0000
vt 0.5000 0.8660 0.0000
# 20 texture coords

g frame_floor
usemtl 20___Default
s off
f 1/4/1 2/5/1 3/6/1 
f 1/4/1 3/6/1 4/7/1 
f 5/3/1 1/4/1 4/7/1 
f 5/3/1 4/7/1 6/8/1 
f 2/2/1 5/3/1 6/8/1 
f 3/1/1 2/2/1 6/8/1 
f 7/10/2 3/11/2 6/12/2 
f 6/12/2 8/9/2 7/10/2 
f 9/14/3 4/15/3 3/16/3 
f 3/16/3 7/13/3 9/14/3 
f 8/18/4 6/19/4 4/20/4 
f 4/20/4 9/17/4 8/18/4 
# 12 faces

