# 3ds Max Wavefront OBJ Exporter v0.97b - (c)2007 guruware
# File Created: 17.05.2017 12:28:13

mtllib frame_front.mtl

#
# object PICTURE
#

v  6.1012 555.5232 9.1685
v  554.3704 552.5055 5.8231
v  8.3283 552.5055 5.8231
v  556.5969 555.5239 9.1685
v  548.9941 545.1272 4.4033
v  13.7045 545.1272 4.4033
v  543.6179 537.7113 5.7410
v  19.0807 537.7113 5.7410
v  541.3914 534.6016 9.0523
v  21.3073 534.6016 9.0523
v  543.6179 537.6200 12.3981
v  19.0802 537.6200 12.3981
v  548.9941 544.9982 13.8178
v  13.7045 544.9982 13.8178
v  554.3704 552.4142 12.4802
v  8.3283 552.4142 12.4802
v  554.3704 8.3185 5.7536
v  556.5969 5.2088 9.0654
v  548.9941 15.7338 4.4160
v  543.6179 23.1120 5.8362
v  541.3909 26.1312 9.1816
v  543.6179 23.0214 12.4929
v  548.9941 15.6054 13.8305
v  554.3704 8.2272 12.4108
v  8.3278 8.3185 5.7536
v  6.1012 5.2088 9.0654
v  13.7040 15.7344 4.4160
v  19.0802 23.1127 5.8357
v  21.3073 26.1312 9.1816
v  19.0802 23.0214 12.4929
v  13.7040 15.6054 13.8305
v  8.3278 8.2272 12.4108
# 32 vertices

vn 0.0000 0.8673 -0.4978
vn -0.0000 0.8672 -0.4979
vn 0.0000 0.2894 -0.9572
vn 0.0000 -0.2727 -0.9621
vn 0.0000 -0.8584 -0.5130
vn 0.0000 -0.8672 0.4979
vn 0.0000 -0.2894 0.9572
vn 0.0000 0.2727 0.9621
vn -0.0000 0.8585 0.5129
vn 0.0000 0.8584 0.5129
vn 0.8640 0.0001 -0.5036
vn 0.8618 0.0001 -0.5073
vn 0.2888 -0.0000 -0.9574
vn 0.2735 0.0002 -0.9619
vn -0.2731 -0.0003 -0.9620
vn -0.2889 -0.0000 -0.9574
vn -0.8617 -0.0002 -0.5075
vn -0.8640 -0.0001 -0.5035
vn -0.8640 0.0001 0.5034
vn -0.8616 0.0002 0.5075
vn -0.2888 0.0000 0.9574
vn -0.2731 0.0003 0.9620
vn 0.2735 -0.0002 0.9619
vn 0.2888 0.0000 0.9574
vn 0.8618 -0.0001 0.5073
vn 0.8640 -0.0001 0.5036
vn 0.0000 -0.8584 -0.5129
vn -0.0000 -0.2727 -0.9621
vn 0.0000 0.2895 -0.9572
vn 0.0000 0.8672 -0.4980
vn 0.0000 0.8672 -0.4979
vn 0.0000 0.8584 0.5130
vn -0.8618 0.0001 -0.5073
vn -0.8639 0.0001 -0.5037
vn -0.2733 -0.0000 -0.9619
vn -0.2886 0.0002 -0.9575
vn 0.2890 -0.0003 -0.9573
vn 0.2733 -0.0000 -0.9619
vn 0.8640 -0.0002 -0.5035
vn 0.8617 -0.0001 -0.5074
vn 0.8616 0.0001 0.5075
vn 0.8640 0.0002 0.5035
vn 0.2733 0.0000 0.9619
vn 0.2890 0.0003 0.9573
vn -0.2886 -0.0002 0.9575
vn -0.2733 0.0000 0.9619
vn -0.8639 -0.0001 0.5036
vn -0.8617 -0.0001 0.5074
# 48 vertex normals

vt 0.8187 0.8245 0.0000
vt 0.8135 0.8178 0.0000
vt 0.8012 0.8014 0.0000
vt 0.7889 0.7850 0.0000
vt 0.7838 0.7782 0.0000
vt 0.7889 0.7850 0.0000
vt 0.8012 0.8014 0.0000
vt 0.8135 0.8178 0.0000
vt 0.1683 0.8245 0.0000
vt 0.1734 0.8178 0.0000
vt 0.1857 0.8014 0.0000
vt 0.1981 0.7850 0.0000
vt 0.2032 0.7782 0.0000
vt 0.1981 0.7850 0.0000
vt 0.1857 0.8014 0.0000
vt 0.1734 0.8178 0.0000
vt 0.1683 0.1897 0.0000
vt 0.1734 0.1965 0.0000
vt 0.1857 0.2129 0.0000
vt 0.1981 0.2293 0.0000
vt 0.2032 0.2361 0.0000
vt 0.1981 0.2293 0.0000
vt 0.1857 0.2129 0.0000
vt 0.1734 0.1965 0.0000
vt 0.8187 0.1897 0.0000
vt 0.8135 0.1965 0.0000
vt 0.8012 0.2129 0.0000
vt 0.7889 0.2293 0.0000
vt 0.7838 0.2361 0.0000
vt 0.7889 0.2293 0.0000
vt 0.8012 0.2129 0.0000
vt 0.8135 0.1965 0.0000
vt 1.0453 1.0261 0.5218
vt 1.0453 -0.0261 0.4782
vt -0.0632 1.0261 0.5218
vt -0.0632 -0.0261 0.4782
# 36 texture coords

g PICTURE
usemtl 20___Default
s off
f 1/1/1 2/10/1 3/2/1 
f 1/1/2 4/9/2 2/10/2 
f 3/2/3 5/11/3 6/3/3 
f 3/2/3 2/10/3 5/11/3 
f 6/3/4 7/12/4 8/4/4 
f 6/3/4 5/11/4 7/12/4 
f 8/4/5 9/13/5 10/5/5 
f 8/4/5 7/12/5 9/13/5 
f 10/5/6 11/14/6 12/6/6 
f 10/5/6 9/13/6 11/14/6 
f 12/6/7 13/15/7 14/7/7 
f 12/6/7 11/14/7 13/15/7 
f 14/7/8 15/16/8 16/8/8 
f 14/7/8 13/15/8 15/16/8 
f 16/8/9 4/9/9 1/1/9 
f 16/8/10 15/16/10 4/9/10 
f 4/9/11 17/18/11 2/10/11 
f 4/9/12 18/17/12 17/18/12 
f 2/10/13 19/19/13 5/11/13 
f 2/10/14 17/18/14 19/19/14 
f 5/11/15 20/20/15 7/12/15 
f 5/11/16 19/19/16 20/20/16 
f 7/12/17 21/21/17 9/13/17 
f 7/12/18 20/20/18 21/21/18 
f 9/13/19 22/22/19 11/14/19 
f 9/13/20 21/21/20 22/22/20 
f 11/14/21 23/23/21 13/15/21 
f 11/14/22 22/22/22 23/23/22 
f 13/15/23 24/24/23 15/16/23 
f 13/15/24 23/23/24 24/24/24 
f 15/16/25 18/17/25 4/9/25 
f 15/16/26 24/24/26 18/17/26 
f 18/17/27 25/26/27 17/18/27 
f 18/17/27 26/25/27 25/26/27 
f 17/18/28 27/27/28 19/19/28 
f 17/18/4 25/26/4 27/27/4 
f 19/19/29 28/28/29 20/20/29 
f 19/19/3 27/27/3 28/28/3 
f 20/20/30 29/29/30 21/21/30 
f 20/20/31 28/28/31 29/29/31 
f 21/21/32 30/30/32 22/22/32 
f 21/21/32 29/29/32 30/30/32 
f 22/22/8 31/31/8 23/23/8 
f 22/22/8 30/30/8 31/31/8 
f 23/23/7 32/32/7 24/24/7 
f 23/23/7 31/31/7 32/32/7 
f 24/24/6 26/25/6 18/17/6 
f 24/24/6 32/32/6 26/25/6 
f 26/25/33 3/2/33 25/26/33 
f 26/25/34 1/1/34 3/2/34 
f 25/26/35 6/3/35 27/27/35 
f 25/26/36 3/2/36 6/3/36 
f 27/27/37 8/4/37 28/28/37 
f 27/27/38 6/3/38 8/4/38 
f 28/28/39 10/5/39 29/29/39 
f 28/28/40 8/4/40 10/5/40 
f 29/29/41 12/6/41 30/30/41 
f 29/29/42 10/5/42 12/6/42 
f 30/30/43 14/7/43 31/31/43 
f 30/30/44 12/6/44 14/7/44 
f 31/31/45 16/8/45 32/32/45 
f 31/31/46 14/7/46 16/8/46 
f 32/32/47 1/1/47 26/25/47 
f 32/32/48 16/8/48 1/1/48 
# 64 faces

