# 3ds Max Wavefront OBJ Exporter v0.97b - (c)2007 guruware
# File Created: 17.05.2017 11:20:26

#
# object PICTURE
#

v  92.6951 246.3303 158.2996
v  196.7285 245.5079 335.6255
v  94.3534 245.5079 158.3065
v  195.9053 246.3305 337.0649
v  196.2471 243.4972 333.5757
v  95.8878 243.4972 159.7483
v  194.7431 241.4763 332.1163
v  96.3997 241.4763 161.7806
v  193.0976 240.6288 332.1022
v  95.5891 240.6288 163.2126
v  192.2742 241.4514 333.5417
v  93.9307 241.4514 163.2058
v  192.7556 243.4620 335.5915
v  92.3963 243.4620 161.7641
v  194.2597 245.4830 337.0510
v  91.8845 245.4830 159.7319
v  196.7543 97.2081 335.6107
v  195.9436 96.3607 337.0428
v  196.2424 99.2289 333.5784
v  194.7078 101.2396 332.1367
v  193.0495 102.0624 332.1298
v  192.2390 101.2149 333.5620
v  192.7509 99.1939 335.5942
v  194.2854 97.1832 337.0361
v  94.3790 97.2081 158.2914
v  92.7334 96.3607 158.2775
v  95.8831 99.2291 159.7509
v  96.3645 101.2398 161.8007
v  95.5412 102.0624 163.2403
v  93.8956 101.2149 163.2261
v  92.3915 99.1939 161.7667
v  91.9101 97.1832 159.7169
# 32 vertices

vn 0.4311 0.8673 -0.2489
vn 0.4312 0.8672 -0.2490
vn 0.8290 0.2894 -0.4786
vn 0.8332 -0.2727 -0.4810
vn 0.4443 -0.8584 -0.2565
vn -0.4312 -0.8672 0.2489
vn -0.8290 -0.2894 0.4786
vn -0.8332 0.2727 0.4811
vn -0.4442 0.8585 0.2564
vn -0.4442 0.8584 0.2565
vn 0.8681 0.0001 0.4964
vn 0.8702 0.0001 0.4927
vn 0.9735 -0.0000 -0.2286
vn 0.9698 0.0002 -0.2441
vn 0.6966 -0.0003 -0.7175
vn 0.6847 -0.0000 -0.7288
vn 0.0086 -0.0002 -1.0000
vn 0.0041 -0.0001 -1.0000
vn -0.8680 0.0001 -0.4966
vn -0.8704 0.0002 -0.4924
vn -0.9735 0.0000 0.2286
vn -0.9696 0.0003 0.2445
vn -0.6962 -0.0002 0.7178
vn -0.6847 0.0000 0.7288
vn -0.0084 -0.0001 1.0000
vn -0.0041 -0.0001 1.0000
vn 0.4442 -0.8584 -0.2565
vn 0.8289 0.2895 -0.4786
vn 0.4313 0.8672 -0.2490
vn 0.4312 0.8672 -0.2489
vn -0.4443 0.8584 0.2565
vn -0.4312 -0.8672 0.2490
vn 0.0084 0.0001 -1.0000
vn 0.0042 0.0001 -1.0000
vn 0.6964 -0.0000 -0.7176
vn 0.6849 0.0002 -0.7286
vn 0.9736 -0.0003 -0.2284
vn 0.9697 -0.0000 -0.2443
vn 0.8680 -0.0002 0.4965
vn 0.8703 -0.0001 0.4925
vn -0.0087 0.0001 1.0000
vn -0.0040 0.0002 1.0000
vn -0.6964 0.0000 0.7176
vn -0.6846 0.0003 0.7290
vn -0.9735 -0.0002 0.2288
vn -0.9697 0.0000 0.2443
vn -0.8681 -0.0001 -0.4964
vn -0.8703 -0.0001 -0.4926
# 48 vertex normals

vt 0.8187 0.8245 0.0000
vt 0.8135 0.8178 0.0000
vt 0.8012 0.8014 0.0000
vt 0.7889 0.7850 0.0000
vt 0.7838 0.7782 0.0000
vt 0.7889 0.7850 0.0000
vt 0.8012 0.8014 0.0000
vt 0.8135 0.8178 0.0000
vt 0.1683 0.8245 0.0000
vt 0.1734 0.8178 0.0000
vt 0.1857 0.8014 0.0000
vt 0.1981 0.7850 0.0000
vt 0.2032 0.7782 0.0000
vt 0.1981 0.7850 0.0000
vt 0.1857 0.8014 0.0000
vt 0.1734 0.8178 0.0000
vt 0.1683 0.1897 0.0000
vt 0.1734 0.1965 0.0000
vt 0.1857 0.2129 0.0000
vt 0.1981 0.2293 0.0000
vt 0.2032 0.2361 0.0000
vt 0.1981 0.2293 0.0000
vt 0.1857 0.2129 0.0000
vt 0.1734 0.1965 0.0000
vt 0.8187 0.1897 0.0000
vt 0.8135 0.1965 0.0000
vt 0.8012 0.2129 0.0000
vt 0.7889 0.2293 0.0000
vt 0.7838 0.2361 0.0000
vt 0.7889 0.2293 0.0000
vt 0.8012 0.2129 0.0000
vt 0.8135 0.1965 0.0000
vt 1.0453 1.0261 0.5218
vt 1.0453 -0.0261 0.4782
vt -0.0632 1.0261 0.5218
vt -0.0632 -0.0261 0.4782
# 36 texture coords

g PICTURE
s off
f 1/1/1 2/10/1 3/2/1 
f 1/1/2 4/9/2 2/10/2 
f 3/2/3 5/11/3 6/3/3 
f 3/2/3 2/10/3 5/11/3 
f 6/3/4 7/12/4 8/4/4 
f 6/3/4 5/11/4 7/12/4 
f 8/4/5 9/13/5 10/5/5 
f 8/4/5 7/12/5 9/13/5 
f 10/5/6 11/14/6 12/6/6 
f 10/5/6 9/13/6 11/14/6 
f 12/6/7 13/15/7 14/7/7 
f 12/6/7 11/14/7 13/15/7 
f 14/7/8 15/16/8 16/8/8 
f 14/7/8 13/15/8 15/16/8 
f 16/8/9 4/9/9 1/1/9 
f 16/8/10 15/16/10 4/9/10 
f 4/9/11 17/18/11 2/10/11 
f 4/9/12 18/17/12 17/18/12 
f 2/10/13 19/19/13 5/11/13 
f 2/10/14 17/18/14 19/19/14 
f 5/11/15 20/20/15 7/12/15 
f 5/11/16 19/19/16 20/20/16 
f 7/12/17 21/21/17 9/13/17 
f 7/12/18 20/20/18 21/21/18 
f 9/13/19 22/22/19 11/14/19 
f 9/13/20 21/21/20 22/22/20 
f 11/14/21 23/23/21 13/15/21 
f 11/14/22 22/22/22 23/23/22 
f 13/15/23 24/24/23 15/16/23 
f 13/15/24 23/23/24 24/24/24 
f 15/16/25 18/17/25 4/9/25 
f 15/16/26 24/24/26 18/17/26 
f 18/17/27 25/26/27 17/18/27 
f 18/17/27 26/25/27 25/26/27 
f 17/18/4 27/27/4 19/19/4 
f 17/18/4 25/26/4 27/27/4 
f 19/19/28 28/28/28 20/20/28 
f 19/19/3 27/27/3 28/28/3 
f 20/20/29 29/29/29 21/21/29 
f 20/20/30 28/28/30 29/29/30 
f 21/21/31 30/30/31 22/22/31 
f 21/21/31 29/29/31 30/30/31 
f 22/22/8 31/31/8 23/23/8 
f 22/22/8 30/30/8 31/31/8 
f 23/23/7 32/32/7 24/24/7 
f 23/23/7 31/31/7 32/32/7 
f 24/24/32 26/25/32 18/17/32 
f 24/24/32 32/32/32 26/25/32 
f 26/25/33 3/2/33 25/26/33 
f 26/25/34 1/1/34 3/2/34 
f 25/26/35 6/3/35 27/27/35 
f 25/26/36 3/2/36 6/3/36 
f 27/27/37 8/4/37 28/28/37 
f 27/27/38 6/3/38 8/4/38 
f 28/28/39 10/5/39 29/29/39 
f 28/28/40 8/4/40 10/5/40 
f 29/29/41 12/6/41 30/30/41 
f 29/29/42 10/5/42 12/6/42 
f 30/30/43 14/7/43 31/31/43 
f 30/30/44 12/6/44 14/7/44 
f 31/31/45 16/8/45 32/32/45 
f 31/31/46 14/7/46 16/8/46 
f 32/32/47 1/1/47 26/25/47 
f 32/32/48 16/8/48 1/1/48 
# 64 faces

