# 3ds Max Wavefront OBJ Exporter v0.97b - (c)2007 guruware
# File Created: 17.05.2017 12:19:21

mtllib frame_left.mtl

#
# object PICTURE001
#

v  339.8459 397.8103 378.1214
v  394.7108 397.4482 281.5611
v  339.4083 397.4482 377.3478
v  395.5995 397.8104 281.5533
v  393.8848 396.5626 282.3416
v  339.6713 396.5626 376.2422
v  393.6055 395.6725 283.4379
v  340.4810 395.6725 375.4522
v  394.0364 395.2993 284.2074
v  341.3629 395.2993 375.4406
v  394.9252 395.6616 284.1998
v  341.8007 395.6616 376.2142
v  395.7512 396.5471 283.4192
v  341.5377 396.5471 377.3197
v  396.0305 397.4372 282.3230
v  340.7280 397.4372 378.1097
v  394.6970 332.1353 281.5531
v  395.5790 331.7621 281.5416
v  393.8873 333.0253 282.3431
v  393.6244 333.9108 283.4487
v  394.0620 334.2731 284.2223
v  394.9440 333.8999 284.2106
v  395.7537 333.0099 283.4207
v  396.0167 332.1243 282.3151
v  339.3945 332.1353 377.3399
v  339.8255 331.7621 378.1096
v  339.6738 333.0253 376.2437
v  340.4997 333.9109 375.4631
v  341.3886 334.2731 375.4554
v  341.8195 333.8999 376.2251
v  341.5402 333.0099 377.3213
v  340.7142 332.1243 378.1019
v  394.0364 395.2993 284.2075
# 33 vertices

vn -0.4311 0.8673 -0.2489
vn -0.4312 0.8672 -0.2490
vn -0.8290 0.2894 -0.4786
vn -0.8332 -0.2727 -0.4810
vn -0.4443 -0.8584 -0.2565
vn 0.4312 -0.8672 0.2489
vn 0.8290 -0.2894 0.4786
vn 0.8332 0.2727 0.4811
vn 0.8332 0.2727 0.4810
vn 0.4442 0.8585 0.2564
vn 0.4442 0.8584 0.2565
vn -0.0041 0.0001 -1.0000
vn -0.0084 0.0001 -1.0000
vn -0.6847 -0.0000 -0.7288
vn -0.6962 0.0002 -0.7178
vn -0.9696 -0.0003 -0.2445
vn -0.9735 -0.0000 -0.2285
vn -0.8703 -0.0002 0.4925
vn -0.8681 -0.0001 0.4964
vn 0.0039 0.0001 1.0000
vn 0.0087 0.0002 1.0000
vn 0.6847 0.0000 0.7288
vn 0.6966 0.0003 0.7175
vn 0.9698 -0.0002 0.2441
vn 0.9735 0.0000 0.2286
vn 0.8702 -0.0001 -0.4927
vn 0.8681 -0.0001 -0.4964
vn -0.4442 -0.8584 -0.2565
vn -0.8289 0.2895 -0.4786
vn -0.4313 0.8672 -0.2490
vn -0.4312 0.8672 -0.2489
vn 0.4443 0.8584 0.2565
vn 0.4312 -0.8672 0.2490
vn -0.8702 0.0001 0.4927
vn -0.8681 0.0001 0.4963
vn -0.9697 -0.0000 -0.2443
vn -0.9735 0.0002 -0.2288
vn -0.6846 -0.0003 -0.7289
vn -0.6964 -0.0000 -0.7177
vn -0.0040 -0.0002 -1.0000
vn -0.0086 -0.0001 -1.0000
vn 0.8703 0.0001 -0.4924
vn 0.8680 0.0002 -0.4965
vn 0.9697 0.0000 0.2443
vn 0.9736 0.0003 0.2284
vn 0.6849 -0.0002 0.7286
vn 0.6964 0.0000 0.7176
vn 0.0041 -0.0001 1.0000
vn 0.0085 -0.0001 1.0000
vn -0.8660 -0.0004 -0.5000
# 50 vertex normals

vt 0.8187 0.8245 0.0000
vt 0.8135 0.8178 0.0000
vt 0.8012 0.8014 0.0000
vt 0.7889 0.7850 0.0000
vt 0.7838 0.7782 0.0000
vt 0.7889 0.7850 0.0000
vt 0.8012 0.8014 0.0000
vt 0.8135 0.8178 0.0000
vt 0.1683 0.8245 0.0000
vt 0.1734 0.8178 0.0000
vt 0.1857 0.8014 0.0000
vt 0.1981 0.7850 0.0000
vt 0.2032 0.7782 0.0000
vt 0.1981 0.7850 0.0000
vt 0.1857 0.8014 0.0000
vt 0.1734 0.8178 0.0000
vt 0.1683 0.1897 0.0000
vt 0.1734 0.1965 0.0000
vt 0.1857 0.2129 0.0000
vt 0.1981 0.2293 0.0000
vt 0.2032 0.2361 0.0000
vt 0.1981 0.2293 0.0000
vt 0.1857 0.2129 0.0000
vt 0.1734 0.1965 0.0000
vt 0.8187 0.1897 0.0000
vt 0.8135 0.1965 0.0000
vt 0.8012 0.2129 0.0000
vt 0.7889 0.2293 0.0000
vt 0.7838 0.2361 0.0000
vt 0.7889 0.2293 0.0000
vt 0.8012 0.2129 0.0000
vt 0.8135 0.1965 0.0000
vt 1.0453 1.0261 0.5218
vt 1.0453 -0.0261 0.4782
vt -0.0632 1.0261 0.5218
vt -0.0632 -0.0261 0.4782
# 36 texture coords

g PICTURE001
usemtl 20___Default
s off
f 1/1/1 2/10/1 3/2/1 
f 1/1/2 4/9/2 2/10/2 
f 3/2/3 5/11/3 6/3/3 
f 3/2/3 2/10/3 5/11/3 
f 6/3/4 7/12/4 8/4/4 
f 6/3/4 5/11/4 7/12/4 
f 8/4/5 9/13/5 10/5/5 
f 8/4/5 7/12/5 9/13/5 
f 10/5/6 11/14/6 12/6/6 
f 10/5/6 9/13/6 11/14/6 
f 12/6/7 13/15/7 14/7/7 
f 12/6/7 11/14/7 13/15/7 
f 14/7/8 15/16/8 16/8/8 
f 14/7/9 13/15/9 15/16/9 
f 16/8/10 4/9/10 1/1/10 
f 16/8/11 15/16/11 4/9/11 
f 4/9/12 17/18/12 2/10/12 
f 4/9/13 18/17/13 17/18/13 
f 2/10/14 19/19/14 5/11/14 
f 2/10/15 17/18/15 19/19/15 
f 5/11/16 20/20/16 7/12/16 
f 5/11/17 19/19/17 20/20/17 
f 7/12/18 21/21/18 9/13/18 
f 7/12/19 20/20/19 21/21/19 
f 9/13/20 22/22/20 11/14/20 
f 9/13/21 21/21/21 22/22/21 
f 11/14/22 23/23/22 13/15/22 
f 11/14/23 22/22/23 23/23/23 
f 13/15/24 24/24/24 15/16/24 
f 13/15/25 23/23/25 24/24/25 
f 15/16/26 18/17/26 4/9/26 
f 15/16/27 24/24/27 18/17/27 
f 18/17/28 25/26/28 17/18/28 
f 18/17/28 26/25/28 25/26/28 
f 17/18/4 27/27/4 19/19/4 
f 17/18/4 25/26/4 27/27/4 
f 19/19/29 28/28/29 20/20/29 
f 19/19/3 27/27/3 28/28/3 
f 20/20/30 29/29/30 21/21/30 
f 20/20/31 28/28/31 29/29/31 
f 21/21/32 30/30/32 22/22/32 
f 21/21/32 29/29/32 30/30/32 
f 22/22/8 31/31/8 23/23/8 
f 22/22/9 30/30/9 31/31/9 
f 23/23/7 32/32/7 24/24/7 
f 23/23/7 31/31/7 32/32/7 
f 24/24/33 26/25/33 18/17/33 
f 24/24/33 32/32/33 26/25/33 
f 26/25/34 3/2/34 25/26/34 
f 26/25/35 1/1/35 3/2/35 
f 25/26/36 6/3/36 27/27/36 
f 25/26/37 3/2/37 6/3/37 
f 27/27/38 8/4/38 28/28/38 
f 27/27/39 6/3/39 8/4/39 
f 28/28/40 10/5/40 29/29/40 
f 28/28/41 8/4/41 10/5/41 
f 29/29/42 12/6/42 30/30/42 
f 29/29/43 10/5/43 12/6/43 
f 30/30/44 14/7/44 31/31/44 
f 30/30/45 12/6/45 14/7/45 
f 31/31/46 16/8/46 32/32/46 
f 31/31/47 14/7/47 16/8/47 
f 32/32/48 1/1/48 26/25/48 
f 32/32/49 16/8/49 1/1/49 
usemtl 21___Default
f 33/35/50 21/36/50 29/34/50 
f 29/34/50 10/33/50 33/35/50 
# 66 faces

