# 3ds Max Wavefront OBJ Exporter v0.97b - (c)2007 guruware
# File Created: 17.05.2017 16:47:47

#
# object right_frame
#

v  281.4298 560.5789 487.5353
v  -1.7198 557.5017 3.8449
v  277.3734 557.5017 487.2485
v  0.0602 560.5796 0.1890
v  -0.2103 549.9780 9.3194
v  273.3871 549.9780 483.2040
v  3.7043 542.4160 13.4052
v  271.8060 542.4160 477.7709
v  7.7308 539.2450 13.7088
v  273.5563 539.2450 474.1321
v  9.5112 542.3229 10.0527
v  277.6131 542.3229 474.4188
v  8.0017 549.8464 4.5782
v  281.5991 549.8464 478.4628
v  4.0871 557.4086 0.4924
v  283.1802 557.4086 483.8959
v  -1.7804 2.5914 3.8799
v  -0.0297 -0.5796 0.2409
v  -0.1993 10.1528 9.3130
v  3.7874 17.6764 13.3573
v  7.8438 20.7550 13.6441
v  9.5939 17.5840 10.0049
v  8.0128 10.0219 4.5718
v  4.0265 2.4983 0.5273
v  277.3130 2.5914 487.2839
v  281.3399 -0.5796 487.5872
v  273.3984 10.1534 483.1981
v  271.8889 17.6771 477.7236
v  273.6691 20.7550 474.0670
v  277.6958 17.5840 474.3710
v  281.6104 10.0219 478.4568
v  283.1199 2.4983 483.9313
# 32 vertices

vn -0.4311 0.8673 0.2489
vn -0.4312 0.8672 0.2490
vn -0.8290 0.2894 0.4786
vn -0.8332 -0.2727 0.4810
vn -0.4443 -0.8584 0.2565
vn 0.4312 -0.8672 -0.2489
vn 0.8290 -0.2894 -0.4786
vn 0.8332 0.2727 -0.4811
vn 0.4442 0.8585 -0.2564
vn 0.4442 0.8584 -0.2565
vn -0.8681 0.0001 -0.4964
vn -0.8702 0.0001 -0.4927
vn -0.9735 -0.0000 0.2286
vn -0.9698 0.0002 0.2441
vn -0.6966 -0.0003 0.7175
vn -0.6847 -0.0000 0.7288
vn -0.0086 -0.0002 1.0000
vn -0.0041 -0.0001 1.0000
vn 0.8680 0.0001 0.4966
vn 0.8704 0.0002 0.4924
vn 0.9735 0.0000 -0.2286
vn 0.9696 0.0003 -0.2445
vn 0.6962 -0.0002 -0.7178
vn 0.6847 0.0000 -0.7288
vn 0.0084 -0.0001 -1.0000
vn 0.0041 -0.0001 -1.0000
vn -0.4442 -0.8584 0.2565
vn -0.8289 0.2895 0.4786
vn -0.4313 0.8672 0.2490
vn -0.4312 0.8672 0.2489
vn 0.4443 0.8584 -0.2565
vn 0.4312 -0.8672 -0.2490
vn -0.0084 0.0001 1.0000
vn -0.0042 0.0001 1.0000
vn -0.6964 -0.0000 0.7176
vn -0.6849 0.0002 0.7286
vn -0.9736 -0.0003 0.2284
vn -0.9697 -0.0000 0.2443
vn -0.8680 -0.0002 -0.4965
vn -0.8703 -0.0001 -0.4925
vn 0.0087 0.0001 -1.0000
vn 0.0040 0.0002 -1.0000
vn 0.6964 0.0000 -0.7176
vn 0.6846 0.0003 -0.7290
vn 0.9735 -0.0002 -0.2288
vn 0.9697 0.0000 -0.2443
vn 0.8681 -0.0001 0.4964
vn 0.8703 -0.0001 0.4926
# 48 vertex normals

vt 0.8187 0.8245 0.0000
vt 0.8135 0.8178 0.0000
vt 0.8012 0.8014 0.0000
vt 0.7889 0.7850 0.0000
vt 0.7838 0.7782 0.0000
vt 0.7889 0.7850 0.0000
vt 0.8012 0.8014 0.0000
vt 0.8135 0.8178 0.0000
vt 0.1683 0.8245 0.0000
vt 0.1734 0.8178 0.0000
vt 0.1857 0.8014 0.0000
vt 0.1981 0.7850 0.0000
vt 0.2032 0.7782 0.0000
vt 0.1981 0.7850 0.0000
vt 0.1857 0.8014 0.0000
vt 0.1734 0.8178 0.0000
vt 0.1683 0.1897 0.0000
vt 0.1734 0.1965 0.0000
vt 0.1857 0.2129 0.0000
vt 0.1981 0.2293 0.0000
vt 0.2032 0.2361 0.0000
vt 0.1981 0.2293 0.0000
vt 0.1857 0.2129 0.0000
vt 0.1734 0.1965 0.0000
vt 0.8187 0.1897 0.0000
vt 0.8135 0.1965 0.0000
vt 0.8012 0.2129 0.0000
vt 0.7889 0.2293 0.0000
vt 0.7838 0.2361 0.0000
vt 0.7889 0.2293 0.0000
vt 0.8012 0.2129 0.0000
vt 0.8135 0.1965 0.0000
vt 1.0453 1.0261 0.5218
vt 1.0453 -0.0261 0.4782
vt -0.0632 1.0261 0.5218
vt -0.0632 -0.0261 0.4782
# 36 texture coords

g right_frame
s off
f 1/1/1 2/10/1 3/2/1 
f 1/1/2 4/9/2 2/10/2 
f 3/2/3 5/11/3 6/3/3 
f 3/2/3 2/10/3 5/11/3 
f 6/3/4 7/12/4 8/4/4 
f 6/3/4 5/11/4 7/12/4 
f 8/4/5 9/13/5 10/5/5 
f 8/4/5 7/12/5 9/13/5 
f 10/5/6 11/14/6 12/6/6 
f 10/5/6 9/13/6 11/14/6 
f 12/6/7 13/15/7 14/7/7 
f 12/6/7 11/14/7 13/15/7 
f 14/7/8 15/16/8 16/8/8 
f 14/7/8 13/15/8 15/16/8 
f 16/8/9 4/9/9 1/1/9 
f 16/8/10 15/16/10 4/9/10 
f 4/9/11 17/18/11 2/10/11 
f 4/9/12 18/17/12 17/18/12 
f 2/10/13 19/19/13 5/11/13 
f 2/10/14 17/18/14 19/19/14 
f 5/11/15 20/20/15 7/12/15 
f 5/11/16 19/19/16 20/20/16 
f 7/12/17 21/21/17 9/13/17 
f 7/12/18 20/20/18 21/21/18 
f 9/13/19 22/22/19 11/14/19 
f 9/13/20 21/21/20 22/22/20 
f 11/14/21 23/23/21 13/15/21 
f 11/14/22 22/22/22 23/23/22 
f 13/15/23 24/24/23 15/16/23 
f 13/15/24 23/23/24 24/24/24 
f 15/16/25 18/17/25 4/9/25 
f 15/16/26 24/24/26 18/17/26 
f 18/17/27 25/26/27 17/18/27 
f 18/17/27 26/25/27 25/26/27 
f 17/18/4 27/27/4 19/19/4 
f 17/18/4 25/26/4 27/27/4 
f 19/19/28 28/28/28 20/20/28 
f 19/19/3 27/27/3 28/28/3 
f 20/20/29 29/29/29 21/21/29 
f 20/20/30 28/28/30 29/29/30 
f 21/21/31 30/30/31 22/22/31 
f 21/21/31 29/29/31 30/30/31 
f 22/22/8 31/31/8 23/23/8 
f 22/22/8 30/30/8 31/31/8 
f 23/23/7 32/32/7 24/24/7 
f 23/23/7 31/31/7 32/32/7 
f 24/24/32 26/25/32 18/17/32 
f 24/24/32 32/32/32 26/25/32 
f 26/25/33 3/2/33 25/26/33 
f 26/25/34 1/1/34 3/2/34 
f 25/26/35 6/3/35 27/27/35 
f 25/26/36 3/2/36 6/3/36 
f 27/27/37 8/4/37 28/28/37 
f 27/27/38 6/3/38 8/4/38 
f 28/28/39 10/5/39 29/29/39 
f 28/28/40 8/4/40 10/5/40 
f 29/29/41 12/6/41 30/30/41 
f 29/29/42 10/5/42 12/6/42 
f 30/30/43 14/7/43 31/31/43 
f 30/30/44 12/6/44 14/7/44 
f 31/31/45 16/8/45 32/32/45 
f 31/31/46 14/7/46 16/8/46 
f 32/32/47 1/1/47 26/25/47 
f 32/32/48 16/8/48 1/1/48 
# 64 faces

