# 3ds Max Wavefront OBJ Exporter v0.97b - (c)2007 guruware
# File Created: 16.04.2017 21:25:26

#
# object light422
#

v  400.0000 559.8880 250.0000
v  388.5433 559.8880 248.6782
v  411.4567 559.8880 248.6782
v  421.9778 559.8880 244.9136
v  378.0222 559.8880 244.9136
v  431.2620 559.8880 239.0077
v  368.7380 559.8880 239.0077
v  439.0077 559.8880 231.2620
v  360.9923 559.8880 231.2620
v  444.9136 559.8880 221.9778
v  448.6782 559.8880 211.4567
v  450.0000 559.8880 200.0000
v  448.6782 559.8880 188.5433
v  444.9136 559.8880 178.0222
v  439.0077 559.8880 168.7380
v  431.2620 559.8880 160.9923
v  421.9778 559.8880 155.0864
v  411.4567 559.8880 151.3218
v  400.0000 559.8880 150.0000
v  388.5433 559.8880 151.3218
v  378.0222 559.8880 155.0864
v  368.7380 559.8880 160.9923
v  360.9923 559.8880 168.7380
v  355.0864 559.8880 178.0222
v  351.3218 559.8880 188.5433
v  350.0000 559.8880 200.0000
v  351.3218 559.8880 211.4567
v  355.0864 559.8880 221.9778
# 28 vertices

vn 0.0000 -1.0000 -0.0000
# 1 vertex normals

g light422
s 1
f 1//1 2//1 3//1 
f 3//1 2//1 4//1 
f 2//1 5//1 4//1 
f 4//1 5//1 6//1 
f 5//1 7//1 6//1 
f 6//1 7//1 8//1 
f 7//1 9//1 8//1 
f 8//1 9//1 10//1 
f 10//1 9//1 11//1 
f 11//1 9//1 12//1 
f 12//1 9//1 13//1 
f 13//1 9//1 14//1 
f 14//1 9//1 15//1 
f 15//1 9//1 16//1 
f 16//1 9//1 17//1 
f 17//1 9//1 18//1 
f 18//1 9//1 19//1 
f 19//1 9//1 20//1 
f 20//1 9//1 21//1 
f 21//1 9//1 22//1 
f 22//1 9//1 23//1 
f 23//1 9//1 24//1 
f 24//1 9//1 25//1 
f 25//1 9//1 26//1 
f 26//1 9//1 27//1 
f 27//1 9//1 28//1 
# 26 faces

