# 3ds Max Wavefront OBJ Exporter v0.97b - (c)2007 guruware
# File Created: 16.04.2017 20:58:24

#
# object 632Right
#

v  279.9999 0.0000 0.0009
v  -0.0000 0.0000 484.9751
v  280.0000 560.0000 0.0009
v  0.0001 560.0000 484.9752
# 4 vertices

vn -0.8660 0.0000 -0.5000
# 1 vertex normals

vt 0.0000 1.0000 0.5000
vt 1.0000 1.0000 0.5000
vt 1.0000 0.0000 0.5000
vt 0.0000 0.0000 0.5000
vt 1.0000 0.0000 0.5000
vt 0.0000 1.0000 0.5000
# 6 texture coords

g 632Right
s 1
f 1/4/1 2/5/1 3/6/1 
f 2/3/1 4/2/1 3/1/1 
# 2 faces

