# 3ds Max Wavefront OBJ Exporter v0.97b - (c)2007 guruware
# File Created: 20.05.2017 19:03:38

#
# object box
#

v  -0.0000 0.0000 0.0003
v  280.0000 0.0000 484.9748
v  560.0000 0.0000 0.0003
v  560.0000 560.0000 0.0003
v  280.0001 560.0000 484.9749
v  0.0000 560.0000 0.0003
# 6 vertices

vn 0.0000 1.0000 -0.0000
vn -0.8660 0.0000 -0.5000
vn 0.0000 -1.0000 -0.0000
vn 0.0000 0.0000 1.0000
vn 0.8660 -0.0000 -0.5000
# 5 vertex normals

vt 0.0000 0.0000 0.0000
vt 1.0000 0.0000 0.0000
vt 0.5000 0.8660 0.0000
vt 0.0000 1.0000 0.5000
vt 1.0000 1.0000 0.5000
vt 1.0000 0.0000 0.5000
vt 0.0000 0.0000 0.5000
vt 1.0000 0.0000 0.5000
vt 0.0000 1.0000 0.5000
vt 0.0000 0.0000 0.0000
vt 1.0000 0.0000 0.0000
vt 0.5000 0.8660 0.0000
vt 560.0000 -0.0000 0.0000
vt 0.0000 -0.0000 0.0000
vt 0.0000 -0.0000 560.0000
vt 560.0000 -0.0000 560.0000
vt 1.0000 1.0000 0.5000
vt 0.0000 1.0000 0.5000
vt 0.0000 0.0000 0.5000
vt 1.0000 0.0000 0.5000
vt 0.0000 0.0000 0.5000
vt 1.0000 1.0000 0.5000
# 22 texture coords

g box
s off
f 1/1/1 2/3/1 3/2/1 
f 3/7/2 2/8/2 4/9/2 
f 2/6/2 5/5/2 4/4/2 
f 6/10/3 4/11/3 5/12/3 
f 3/13/4 4/16/4 6/15/4 
f 6/15/4 1/14/4 3/13/4 
f 2/21/5 1/20/5 6/22/5 
f 5/18/5 2/19/5 6/17/5 
# 8 faces

