# 3ds Max Wavefront OBJ Exporter v0.97b - (c)2007 guruware
# File Created: 20.05.2017 22:29:24

#
# object front_frame338
#

v  -0.0052 56.0579 -0.1370
v  0.3318 55.7502 55.9093
v  0.3318 55.7502 0.0907
v  -0.0052 56.0580 56.1369
v  0.4748 54.9978 55.3598
v  0.4748 54.9978 0.6403
v  0.3400 54.2416 54.8102
v  0.3400 54.2416 1.1899
v  0.0065 53.9245 54.5826
v  0.0065 53.9245 1.4175
v  -0.3305 54.2323 54.8102
v  -0.3305 54.2323 1.1898
v  -0.4735 54.9846 55.3598
v  -0.4735 54.9846 0.6403
v  -0.3388 55.7409 55.9093
v  -0.3387 55.7409 0.0907
v  0.3387 0.2591 55.9093
v  0.0052 -0.0580 56.1369
v  0.4735 1.0153 55.3598
v  0.3304 1.7676 54.8102
v  -0.0065 2.0755 54.5825
v  -0.3400 1.7584 54.8102
v  -0.4748 1.0022 55.3598
v  -0.3318 0.2498 55.9093
v  0.3388 0.2591 0.0907
v  0.0052 -0.0580 -0.1370
v  0.4735 1.0153 0.6402
v  0.3305 1.7677 1.1898
v  -0.0065 2.0755 1.4175
v  -0.3400 1.7584 1.1898
v  -0.4748 1.0022 0.6402
v  -0.3318 0.2498 0.0907
# 32 vertices

vn 0.6744 0.7384 -0.0000
vn 0.6744 0.7383 -0.0000
vn 0.9824 0.1867 -0.0000
vn 0.9845 -0.1754 -0.0000
vn 0.6890 -0.7247 -0.0000
vn -0.6744 -0.7384 -0.0000
vn -0.9824 -0.1867 -0.0000
vn -0.9845 0.1754 -0.0000
vn -0.6889 0.7248 -0.0000
vn -0.6890 0.7248 -0.0000
vn 0.5598 0.0001 0.8286
vn 0.5636 0.0001 0.8261
vn 0.9678 -0.0000 0.2518
vn 0.9712 0.0001 0.2383
vn 0.9713 -0.0002 -0.2379
vn 0.9678 -0.0000 -0.2519
vn 0.5638 -0.0001 -0.8259
vn 0.5598 -0.0001 -0.8286
vn -0.5597 0.0001 -0.8287
vn -0.5639 0.0001 -0.8258
vn -0.9678 0.0000 -0.2518
vn -0.9713 0.0002 -0.2379
vn -0.9712 -0.0001 0.2383
vn -0.9678 0.0000 0.2518
vn -0.5636 -0.0001 0.8261
vn -0.5598 -0.0001 0.8286
vn 0.6890 -0.7248 0.0000
vn 0.6890 -0.7248 -0.0000
vn 0.9845 -0.1754 0.0000
vn 0.9824 0.1868 0.0000
vn 0.9824 0.1867 0.0000
vn 0.6745 0.7383 -0.0000
vn 0.6744 0.7384 0.0000
vn -0.6890 0.7247 -0.0000
vn -0.6744 -0.7383 -0.0000
vn 0.5636 0.0001 -0.8260
vn 0.5599 0.0001 -0.8285
vn 0.9712 -0.0000 -0.2381
vn 0.9678 0.0001 -0.2517
vn 0.9677 -0.0002 0.2520
vn 0.9712 -0.0000 0.2381
vn 0.5597 -0.0001 0.8287
vn 0.5638 -0.0001 0.8259
vn -0.5638 0.0001 0.8259
vn -0.5597 0.0001 0.8287
vn -0.9712 0.0000 0.2381
vn -0.9677 0.0002 0.2521
vn -0.9678 -0.0001 -0.2517
vn -0.9712 0.0000 -0.2381
vn -0.5598 -0.0001 -0.8286
vn -0.5637 -0.0001 -0.8260
# 51 vertex normals

vt 0.8187 0.8245 0.0000
vt 0.8135 0.8178 0.0000
vt 0.8012 0.8014 0.0000
vt 0.7889 0.7850 0.0000
vt 0.7838 0.7782 0.0000
vt 0.7889 0.7850 0.0000
vt 0.8012 0.8014 0.0000
vt 0.8135 0.8178 0.0000
vt 0.1683 0.8245 0.0000
vt 0.1734 0.8178 0.0000
vt 0.1857 0.8014 0.0000
vt 0.1981 0.7850 0.0000
vt 0.2032 0.7782 0.0000
vt 0.1981 0.7850 0.0000
vt 0.1857 0.8014 0.0000
vt 0.1734 0.8178 0.0000
vt 0.1683 0.1897 0.0000
vt 0.1734 0.1965 0.0000
vt 0.1857 0.2129 0.0000
vt 0.1981 0.2293 0.0000
vt 0.2032 0.2361 0.0000
vt 0.1981 0.2293 0.0000
vt 0.1857 0.2129 0.0000
vt 0.1734 0.1965 0.0000
vt 0.8187 0.1897 0.0000
vt 0.8135 0.1965 0.0000
vt 0.8012 0.2129 0.0000
vt 0.7889 0.2293 0.0000
vt 0.7838 0.2361 0.0000
vt 0.7889 0.2293 0.0000
vt 0.8012 0.2129 0.0000
vt 0.8135 0.1965 0.0000
# 32 texture coords

g front_frame338
s off
f 1/1/1 2/10/1 3/2/1 
f 1/1/2 4/9/2 2/10/2 
f 3/2/3 5/11/3 6/3/3 
f 3/2/3 2/10/3 5/11/3 
f 6/3/4 7/12/4 8/4/4 
f 6/3/4 5/11/4 7/12/4 
f 8/4/5 9/13/5 10/5/5 
f 8/4/5 7/12/5 9/13/5 
f 10/5/6 11/14/6 12/6/6 
f 10/5/6 9/13/6 11/14/6 
f 12/6/7 13/15/7 14/7/7 
f 12/6/7 11/14/7 13/15/7 
f 14/7/8 15/16/8 16/8/8 
f 14/7/8 13/15/8 15/16/8 
f 16/8/9 4/9/9 1/1/9 
f 16/8/10 15/16/10 4/9/10 
f 4/9/11 17/18/11 2/10/11 
f 4/9/12 18/17/12 17/18/12 
f 2/10/13 19/19/13 5/11/13 
f 2/10/14 17/18/14 19/19/14 
f 5/11/15 20/20/15 7/12/15 
f 5/11/16 19/19/16 20/20/16 
f 7/12/17 21/21/17 9/13/17 
f 7/12/18 20/20/18 21/21/18 
f 9/13/19 22/22/19 11/14/19 
f 9/13/20 21/21/20 22/22/20 
f 11/14/21 23/23/21 13/15/21 
f 11/14/22 22/22/22 23/23/22 
f 13/15/23 24/24/23 15/16/23 
f 13/15/24 23/23/24 24/24/24 
f 15/16/25 18/17/25 4/9/25 
f 15/16/26 24/24/26 18/17/26 
f 18/17/27 25/26/27 17/18/27 
f 18/17/28 26/25/28 25/26/28 
f 17/18/4 27/27/4 19/19/4 
f 17/18/29 25/26/29 27/27/29 
f 19/19/30 28/28/30 20/20/30 
f 19/19/31 27/27/31 28/28/31 
f 20/20/32 29/29/32 21/21/32 
f 20/20/33 28/28/33 29/29/33 
f 21/21/34 30/30/34 22/22/34 
f 21/21/34 29/29/34 30/30/34 
f 22/22/8 31/31/8 23/23/8 
f 22/22/8 30/30/8 31/31/8 
f 23/23/7 32/32/7 24/24/7 
f 23/23/7 31/31/7 32/32/7 
f 24/24/35 26/25/35 18/17/35 
f 24/24/35 32/32/35 26/25/35 
f 26/25/36 3/2/36 25/26/36 
f 26/25/37 1/1/37 3/2/37 
f 25/26/38 6/3/38 27/27/38 
f 25/26/39 3/2/39 6/3/39 
f 27/27/40 8/4/40 28/28/40 
f 27/27/41 6/3/41 8/4/41 
f 28/28/42 10/5/42 29/29/42 
f 28/28/43 8/4/43 10/5/43 
f 29/29/44 12/6/44 30/30/44 
f 29/29/45 10/5/45 12/6/45 
f 30/30/46 14/7/46 31/31/46 
f 30/30/47 12/6/47 14/7/47 
f 31/31/48 16/8/48 32/32/48 
f 31/31/49 14/7/49 16/8/49 
f 32/32/50 1/1/50 26/25/50 
f 32/32/51 16/8/51 1/1/51 
# 64 faces

